<?xml version="1.0" standalone="no"?>
<!DOCTYPE svg PUBLIC "-//W3C//DTD SVG 1.1//EN" "http://www.w3.org/Graphics/SVG/1.1/DTD/svg11.dtd" >
<svg xmlns="http://www.w3.org/2000/svg">
<metadata>Generated by IcoMoon</metadata>
<defs>
<font id="icomoon" horiz-adv-x="1024">
<font-face units-per-em="1024" ascent="960" descent="-64" />
<missing-glyph horiz-adv-x="1024" />
<glyph unicode="&#x20;" horiz-adv-x="512" d="" />
<glyph unicode="&#xe900;" glyph-name="arrow-down" d="M712.832 350.165c-7.721 7.718-18.386 12.492-30.165 12.492s-22.445-4.774-30.165-12.492l-97.835-97.835v494.336c0 23.564-19.103 42.667-42.667 42.667s-42.667-19.103-42.667-42.667v0-494.336l-97.835 97.835c-7.769 8.036-18.647 13.026-30.69 13.026-23.564 0-42.667-19.103-42.667-42.667 0-12.043 4.989-22.92 13.014-30.678l170.679-170.679c7.725-7.744 18.407-12.535 30.208-12.535s22.483 4.791 30.207 12.534l170.668 170.668c7.693 7.716 12.45 18.364 12.45 30.123 0 11.801-4.791 22.483-12.534 30.207l-0.001 0.001z" />
<glyph unicode="&#xe901;" glyph-name="arrow-first" d="M896 490.667h-537.003l97.835 97.835c8.32 8.021 13.013 19.115 13.013 30.677 0 23.424-19.243 42.667-42.667 42.667-11.563 0-22.656-4.693-30.677-13.013l-170.667-170.667c-12.16-12.203-15.787-30.635-9.259-46.549 2.133-5.205 5.291-9.941 9.259-13.909l170.667-170.667c7.936-7.68 18.603-11.989 29.653-11.989 23.381 0 42.667 19.285 42.667 42.667 0 11.051-4.309 21.717-11.989 29.653l-97.835 97.963h537.003c23.424 0 42.667 19.243 42.667 42.667s-19.243 42.667-42.667 42.667zM128 789.333c-23.424 0-42.667-19.243-42.667-42.667v-597.333c0-23.424 19.243-42.667 42.667-42.667s42.667 19.243 42.667 42.667v597.333c0 23.424-19.243 42.667-42.667 42.667z" />
<glyph unicode="&#xe902;" glyph-name="arrow-last" d="M807.381 464.299c-2.133 5.205-5.291 9.941-9.259 13.952l-170.667 170.667c-7.936 7.68-18.603 11.989-29.653 11.989-23.381 0-42.667-19.285-42.667-42.667 0-11.051 4.309-21.717 11.989-29.653l97.877-97.92h-537.003c-23.424 0-42.667-19.243-42.667-42.667s19.243-42.667 42.667-42.667h537.003l-97.835-97.835c-8.32-8.021-13.013-19.115-13.013-30.677 0-23.424 19.243-42.667 42.667-42.667 11.563 0 22.656 4.693 30.677 13.013l170.667 170.667c12.203 12.16 15.872 30.592 9.259 46.507l-0.043-0.043zM896 789.333c-23.424 0-42.667-19.243-42.667-42.667v-597.333c0-23.424 19.243-42.667 42.667-42.667s42.667 19.243 42.667 42.667v597.333c0 23.424-19.243 42.667-42.667 42.667z" />
<glyph unicode="&#xe903;" glyph-name="arrow-left" d="M810.667 490.667h-494.336l97.835 97.877c8.036 7.769 13.026 18.647 13.026 30.69 0 23.564-19.103 42.667-42.667 42.667-12.043 0-22.92-4.989-30.678-13.014l-170.679-170.679c-7.727-7.722-12.506-18.393-12.506-30.179 0-5.891 1.194-11.503 3.353-16.607l-0.105 0.28c2.255-5.428 5.384-10.062 9.26-13.953l170.666-170.666c7.665-7.41 18.12-11.977 29.641-11.977 23.564 0 42.667 19.103 42.667 42.667 0 11.521-4.567 21.976-11.989 29.653l-97.823 97.908h494.336c23.564 0 42.667 19.103 42.667 42.667s-19.103 42.667-42.667 42.667v0z" />
<glyph unicode="&#xe904;" glyph-name="arrow-left-slim" d="M937.813 469.333h-800.981l134.272 134.229c3.856 3.862 6.241 9.194 6.241 15.083 0 11.789-9.557 21.345-21.345 21.345-5.9 0-11.24-2.393-15.104-6.262v0l-170.667-170.667c-3.854-3.86-6.238-9.189-6.238-15.075 0-2.951 0.599-5.762 1.683-8.319l-0.053 0.14c1.111-2.709 2.67-5.021 4.608-6.954v0l170.667-170.667c3.864-3.869 9.204-6.263 15.104-6.263 11.789 0 21.345 9.557 21.345 21.345 0 5.889-2.385 11.221-6.241 15.083v0l-134.272 134.315h800.981c11.782 0 21.333 9.551 21.333 21.333s-9.551 21.333-21.333 21.333v0z" />
<glyph unicode="&#xe905;" glyph-name="arrow-right" d="M850.048 431.701c2.033 4.818 3.214 10.42 3.214 16.297 0 11.804-4.765 22.494-12.475 30.254l-170.665 170.665c-7.769 8.036-18.647 13.026-30.69 13.026-23.564 0-42.667-19.103-42.667-42.667 0-12.043 4.989-22.92 13.014-30.678l97.889-97.932h-494.336c-23.564 0-42.667-19.103-42.667-42.667s19.103-42.667 42.667-42.667v0h494.336l-97.835-97.835c-8.036-7.769-13.026-18.647-13.026-30.69 0-23.564 19.103-42.667 42.667-42.667 12.043 0 22.92 4.989 30.678 13.014l170.679 170.679c3.86 3.863 6.975 8.47 9.113 13.588l0.103 0.279z" />
<glyph unicode="&#xe906;" glyph-name="arrow-right-slim" d="M957.525 439.851c1.023 2.408 1.618 5.209 1.618 8.149s-0.595 5.741-1.67 8.289l0.053-0.14c-1.12 2.712-2.694 5.025-4.648 6.952l-170.669 170.669c-3.885 4.018-9.323 6.513-15.345 6.513-11.782 0-21.333-9.551-21.333-21.333 0-6.021 2.495-11.46 6.507-15.339l134.278-134.278h-800.981c-11.782 0-21.333-9.551-21.333-21.333s9.551-21.333 21.333-21.333v0h800.981l-134.229-134.272c-3.705-3.832-5.989-9.060-5.989-14.821 0-11.782 9.551-21.333 21.333-21.333 5.761 0 10.988 2.283 14.827 5.994l170.661 170.661c1.95 1.926 3.511 4.241 4.559 6.818l0.049 0.136z" />
<glyph unicode="&#xe907;" glyph-name="arrow-up" d="M712.832 606.165l-170.667 170.667c-3.968 3.968-8.704 7.125-13.909 9.259-10.453 4.309-22.144 4.309-32.597 0-5.205-2.133-9.941-5.291-13.909-9.259l-170.667-170.667c-7.979-8.021-12.501-18.859-12.501-30.165 0-23.424 19.285-42.709 42.709-42.709 11.349 0 22.187 4.523 30.208 12.544l97.835 97.835v-494.336c0-23.424 19.243-42.667 42.667-42.667s42.667 19.243 42.667 42.667v494.336l97.835-97.835c7.936-7.68 18.603-11.989 29.653-11.989 23.381 0 42.667 19.285 42.667 42.667 0 11.051-4.309 21.717-11.989 29.653z" />
<glyph unicode="&#xe908;" glyph-name="arrow-upload" d="M341.333 577.237c11.307 0 22.187 4.523 30.165 12.501l97.835 97.835v-409.003c0-23.424 19.243-42.667 42.667-42.667s42.667 19.243 42.667 42.667v409.003l97.835-97.835c7.936-7.68 18.603-11.989 29.653-11.989 23.381 0 42.667 19.285 42.667 42.667 0 11.051-4.309 21.717-11.989 29.653l-170.667 170.667c-3.968 3.968-8.704 7.125-13.909 9.259-10.453 4.309-22.144 4.309-32.597 0-5.205-2.133-9.941-5.291-13.909-9.259l-170.667-170.667c-7.979-7.979-12.501-18.859-12.501-30.165 0-23.424 19.285-42.667 42.667-42.667 0.043 0 0.043 0 0.085 0zM853.333 268.8c-18.731 0-34.133-15.403-34.133-34.133v-93.867h-614.4v93.867c0 18.731-15.403 34.133-34.133 34.133s-34.133-15.403-34.133-34.133v-128c0-18.731 15.403-34.133 34.133-34.133h682.667c18.731 0 34.133 15.403 34.133 34.133v128c0 18.731-15.403 34.133-34.133 34.133z" />
<glyph unicode="&#xe909;" glyph-name="back" d="M725.12 576h-494.123l97.835 97.835c7.979 8.021 12.501 18.859 12.501 30.165 0 23.424-19.285 42.667-42.667 42.667-11.307 0-22.187-4.48-30.165-12.501l-169.771-169.728c-8.789-7.936-13.824-19.243-13.824-31.104 0-11.819 5.035-23.125 13.824-31.061l169.771-169.771c7.979-7.979 18.859-12.459 30.165-12.459 23.381 0 42.667 19.243 42.667 42.624 0 11.307-4.523 22.187-12.501 30.165l-97.835 97.835h494.123c70.187 0 128-57.771 128-128 0-70.187-57.813-128-128-128h-85.12c-23.424 0-42.667-19.243-42.667-42.667 0-23.381 19.243-42.667 42.667-42.667h85.12c117.035 0 213.333 96.299 213.333 213.333s-96.299 213.333-213.333 213.333z" />
<glyph unicode="&#xe90a;" glyph-name="bars" d="M853.333 149.333h-682.667c-23.564 0-42.667 19.103-42.667 42.667s19.103 42.667 42.667 42.667v0h682.667c23.564 0 42.667-19.103 42.667-42.667s-19.103-42.667-42.667-42.667v0zM853.333 405.333h-682.667c-23.564 0-42.667 19.103-42.667 42.667s19.103 42.667 42.667 42.667v0h682.667c23.564 0 42.667-19.103 42.667-42.667s-19.103-42.667-42.667-42.667v0zM853.333 661.333h-682.667c-23.564 0-42.667 19.103-42.667 42.667s19.103 42.667 42.667 42.667v0h682.667c23.564 0 42.667-19.103 42.667-42.667s-19.103-42.667-42.667-42.667v0z" />
<glyph unicode="&#xe90b;" glyph-name="bell" d="M768 362.651l-0.135 213.349c-1.163 118.438-81.68 217.753-190.874 247.4l-1.814 0.42c0.418 2.379 0.713 5.197 0.82 8.064l0.003 0.116c0 35.346-28.654 64-64 64s-64-28.654-64-64v0c0.11-2.983 0.405-5.801 0.877-8.559l-0.054 0.379c-111.044-30.050-191.604-129.361-192.822-247.682l-0.001-0.138v-213.35l-85.333-104.098v-66.552h682.667v66.552zM512 64c0.001 0 0.003 0 0.004 0 47.126 0 85.329 38.203 85.329 85.329 0 0.001 0 0.003 0 0.004v0h-170.667c0.001-47.128 38.206-85.332 85.333-85.333v0z" />
<glyph unicode="&#xe90c;" glyph-name="bell-o" d="M768 362.651l-0.135 215.943c-1.285 117.756-81.927 216.325-190.907 244.831l-1.78 0.396c0.418 2.379 0.713 5.197 0.82 8.063l0.003 0.117c0 35.346-28.654 64-64 64s-64-28.654-64-64v0c0.11-2.983 0.405-5.801 0.877-8.559l-0.054 0.379c-110.765-28.897-191.412-127.467-192.697-245.081l-0.001-0.145-0.125-215.943-85.333-104.099v-66.552h682.667v66.552zM260.344 260.267l48.448 59.106c9.626 11.669 15.468 26.771 15.479 43.237v0.002l0.114 215.296c0.958 102.887 84.586 185.923 187.609 185.923 102.796 0 186.283-82.672 187.601-185.156l0.001-0.124 0.135-215.943c0.011-16.468 5.853-31.569 15.573-43.353l-0.093 0.116 48.445-59.105zM512 64c0.001 0 0.003 0 0.004 0 47.126 0 85.329 38.203 85.329 85.329 0 0.001 0 0.003 0 0.004v0h-170.667c0.001-47.128 38.206-85.332 85.333-85.333v0z" />
<glyph unicode="&#xe90d;" glyph-name="bell-off" d="M880.279 79.582l-112.416 112.418h0.271l-68.273 68.267h-0.271l-556.009 556.016c-6.17 6.149-14.682 9.951-24.083 9.951-18.843 0-34.118-15.275-34.118-34.118 0-9.4 3.802-17.913 9.952-24.084l-0.001 0.001 160.668-161.472v-243.911l-85.333-104.096v-66.554h500.696l160.666-160.669c6.17-6.149 14.682-9.951 24.083-9.951 18.843 0 34.118 15.275 34.118 34.118 0 9.4-3.802 17.913-9.952 24.084l0.001-0.001zM512 64c0.001 0 0.003 0 0.004 0 47.126 0 85.329 38.203 85.329 85.329 0 0.001 0 0.003 0 0.004v0h-170.667c0.001-47.128 38.206-85.332 85.333-85.333v0zM853.333 203.304v55.25l-86.542 104.096-0.135 215.942c-1.277 117.333-81.342 215.616-189.724 244.522l-1.787 0.405c0.444 2.478 0.75 5.4 0.851 8.375l0.003 0.106c0 35.346-28.654 64-64 64s-64-28.654-64-64v0c0.111-2.88 0.395-5.594 0.844-8.253l-0.052 0.373c-53.65-13.832-99.125-43.17-132.69-82.896l-0.311-0.378z" />
<glyph unicode="&#xe90e;" glyph-name="bell-off-o" d="M512 64c0.002 0 0.005 0 0.008 0 47.124 0 85.326 38.202 85.326 85.326 0 0.003 0 0.005 0 0.008v0h-170.667c0-47.128 38.205-85.333 85.333-85.333v0zM880.279 79.582l-112.417 112.418h0.271l-68.26 68.267h-0.271l-556.021 556.016c-6.17 6.149-14.682 9.951-24.083 9.951-18.843 0-34.118-15.275-34.118-34.118 0-9.4 3.802-17.913 9.952-24.084l162.52-162.52c-0.979-7.953-1.6-17.292-1.717-26.753l-0.002-0.167-0.134-215.942-85.333-104.099v-66.551h500.698l160.667-160.666c6.17-6.149 14.682-9.951 24.083-9.951 18.843 0 34.118 15.275 34.118 34.118 0 9.4-3.802 17.913-9.952 24.084l0.001-0.001zM260.342 260.265l48.448 59.107c9.627 11.668 15.468 26.769 15.479 43.235v0.002l0.105 176.384 278.729-278.729zM512 763.733c102.648-0.285 185.945-82.732 187.603-185.024l0.002-0.156 0.125-215.943c0.331-2.716 0.751-5.062 1.288-7.363l-0.090 0.459 152.405-152.404v55.247l-85.333 104.099-0.128 215.942c-1.285 117.759-81.932 216.331-190.917 244.831l-1.781 0.396c0.418 2.378 0.714 5.197 0.822 8.063l0.004 0.118c0 35.346-28.654 64-64 64s-64-28.654-64-64v0c0.111-2.984 0.405-5.803 0.876-8.562l-0.054 0.38c-53.445-14.053-98.695-43.484-132.066-83.225l-0.321-0.393 49.114-49.114c34.088 44.157 86.945 72.391 146.408 72.648h0.042z" />
<glyph unicode="&#xe90f;" glyph-name="bolt" d="M795.691 546.133c-0.213 2.389-0.683 4.779-1.408 7.083-1.792 3.968-4.011 7.68-6.656 11.136-1.536 1.579-3.2 2.987-4.992 4.267-1.152 1.152-2.432 2.219-3.755 3.157-0.64 0.384-1.323 0.384-1.963 0.725-1.195 0.469-2.432 0.896-3.669 1.28-2.773 0.939-5.632 1.493-8.533 1.707-0.683 0.085-1.408 0.512-2.261 0.512h-189.909v158.293c0 1.237 0 2.56 0 3.84 0 0.469-0.213 0.896-0.213 1.365v123.733c0 1.152-0.555 2.176-0.64 3.328-0.171 2.731-0.64 5.461-1.451 8.107-0.64 1.749-1.451 3.413-2.389 4.992-1.109 2.133-2.475 4.181-4.011 6.016-1.451 1.579-3.029 2.987-4.736 4.267-1.024 1.067-2.133 2.048-3.285 2.944-0.725 0.427-1.493 0.427-2.219 0.811-2.048 0.896-4.139 1.621-6.315 2.176-2.176 0.683-4.437 1.109-6.741 1.323-0.725 0.213-1.451 0.341-2.176 0.469-1.451-0.171-2.859-0.469-4.267-0.853-2.261-0.213-4.48-0.64-6.613-1.323-2.133-0.768-4.224-1.749-6.144-2.944-1.749-0.981-3.413-2.091-4.949-3.328-1.92-1.707-3.627-3.627-5.12-5.717-0.853-0.853-1.621-1.749-2.389-2.688l-277.333-470.784c-0.384-0.683-0.384-1.451-0.725-2.133-0.939-2.048-1.664-4.181-2.219-6.4-0.683-2.133-1.109-4.352-1.323-6.613-0.085-2.091 0.043-4.181 0.384-6.272 0.213-2.304 0.683-4.565 1.365-6.784 0.725-2.005 1.664-3.925 2.731-5.76 1.024-1.92 2.261-3.755 3.669-5.419 1.536-1.707 3.243-3.243 5.077-4.565 0.981-1.024 2.005-1.963 3.115-2.816 0.896-0.512 1.877-0.725 2.773-1.152s1.835-0.811 2.816-1.195c3.755-1.451 7.723-2.261 11.733-2.347h183.467v-334.165c0.213-2.304 0.683-4.565 1.408-6.784 0.171-1.28 0.427-2.517 0.725-3.755 2.261-7.211 6.997-13.355 13.44-17.323 0.896-0.597 1.451-1.536 2.432-2.048 0.299 0 0.683 0 0.981-0.256 4.651-2.517 9.856-3.883 15.147-3.968h0.981c4.992 0.213 9.856 1.493 14.293 3.84 1.621 0.896 3.2 1.92 4.651 3.115 2.859 2.176 5.376 4.736 7.467 7.68 0.811 1.109 2.133 1.621 2.816 2.859l255.829 467.285v0.256l27.563 50.347c0.171 0.512 0.341 1.024 0.469 1.536 1.621 4.267 2.773 8.661 3.413 13.184 0 0.597 0.341 1.067 0.341 1.664-0.128 1.365-0.341 2.731-0.683 4.096z" />
<glyph unicode="&#xe910;" glyph-name="bolt-o" d="M795.904 546.133c-0.213 2.389-0.683 4.779-1.408 7.083-1.792 3.968-4.011 7.68-6.656 11.136-1.536 1.579-3.2 2.987-4.992 4.267-1.152 1.152-2.432 2.176-3.755 3.115-0.64 0.384-1.323 0.384-1.963 0.725-1.195 0.469-2.432 0.896-3.669 1.28-2.773 0.939-5.632 1.493-8.533 1.707-0.683 0.128-1.195 0.555-2.261 0.555h-189.909v287.232c-0.171 1.109-0.384 2.219-0.683 3.328-0.171 2.773-0.725 5.504-1.621 8.107-0.64 1.749-1.451 3.413-2.389 4.992-1.195 2.176-2.603 4.181-4.267 6.016-1.408 1.579-2.987 2.987-4.693 4.267-1.024 1.067-2.133 2.048-3.285 2.944-0.725 0.427-1.493 0.427-2.261 0.811-2.005 0.896-4.139 1.664-6.272 2.176-2.176 0.683-4.437 1.109-6.741 1.323-0.725 0.213-1.451 0.341-2.176 0.469-1.451-0.171-2.859-0.469-4.267-0.853-2.261-0.213-4.48-0.64-6.613-1.323-2.133-0.768-4.224-1.749-6.144-2.944-1.749-0.981-3.413-2.091-4.949-3.328-1.92-1.707-3.627-3.627-5.12-5.717-0.853-0.853-1.621-1.749-2.389-2.688l-277.333-470.784c-0.384-0.683-0.384-1.451-0.725-2.133-0.939-2.048-1.664-4.181-2.219-6.4-0.683-2.133-1.109-4.352-1.323-6.613-0.085-2.091 0.043-4.181 0.384-6.272 0.213-2.304 0.683-4.565 1.365-6.784 0.725-2.005 1.664-3.925 2.731-5.76 1.024-1.92 2.261-3.755 3.669-5.419 1.536-1.707 3.243-3.243 5.077-4.565 0.981-1.024 2.005-1.963 3.115-2.816 0.896-0.512 1.835-0.725 2.773-1.152s1.835-0.811 2.816-1.195c3.755-1.451 7.723-2.261 11.733-2.347h183.467v-334.165c0.213-2.304 0.683-4.565 1.408-6.784 0.469-4.352 2.176-8.448 4.907-11.861 0.683-1.152 1.451-2.261 2.261-3.328 2.048-2.261 4.395-4.267 6.997-5.888 0.896-0.597 1.451-1.536 2.432-2.048 0.299 0 0.683 0 0.981-0.256 4.651-2.517 9.856-3.883 15.147-3.968h0.981c6.912 0.171 13.568 2.603 18.944 6.955 2.859 2.176 5.376 4.736 7.467 7.68 0.811 1.109 2.133 1.621 2.816 2.859l256.043 467.541 27.563 50.347c0.171 0.512 0.341 1.024 0.469 1.536 1.621 4.267 2.773 8.661 3.413 13.184 0 0.597 0.341 1.067 0.341 1.664-0.128 1.365-0.341 2.731-0.683 4.096zM694.912 489.131l-181.845-331.264v234.667c0 18.731-15.403 34.133-34.133 34.133h-157.867l183.467 311.467v-196.267c0-18.731 15.403-34.133 34.133-34.133h166.4l-10.155-18.603z" />
<glyph unicode="&#xe911;" glyph-name="bookmark" d="M725.328 831.994h-426.667c-47.103-0.063-85.27-38.23-85.333-85.327v-682.662l298.667 127.997 298.667-127.997v682.656c-0.063 47.103-38.23 85.27-85.327 85.333h-0.006z" />
<glyph unicode="&#xe912;" glyph-name="bookmark-o" d="M725.333 763.733c9.344 0 17.067-7.723 17.067-17.067v-579.157l-230.4 98.773-230.4-98.773v579.157c0 9.344 7.723 17.067 17.067 17.067h426.667zM725.333 832h-426.667c-46.805 0-85.333-38.528-85.333-85.333v-682.667l298.667 128 298.667-128v682.667c0 46.805-38.528 85.333-85.333 85.333z" />
<glyph unicode="&#xe913;" glyph-name="calendar" d="M896 832h-85.333v42.667c0 23.424-19.243 42.667-42.667 42.667s-42.667-19.243-42.667-42.667v-42.667h-426.667v42.667c0 23.424-19.243 42.667-42.667 42.667s-42.667-19.243-42.667-42.667v-42.667h-85.333c-23.424 0-42.667-19.243-42.667-42.667v-725.333c0-23.424 19.243-42.667 42.667-42.667h768c23.424 0 42.667 19.243 42.667 42.667v725.333c0 23.424-19.243 42.667-42.667 42.667zM870.4 89.6h-716.8v529.067h716.8v-529.067zM392.533 320c0 23.552-19.115 42.667-42.667 42.667h-85.333c-23.552 0-42.667-19.115-42.667-42.667v-85.333c0-23.552 19.115-42.667 42.667-42.667h85.333c23.552 0 42.667 19.115 42.667 42.667v85.333z" />
<glyph unicode="&#xe914;" glyph-name="calendar-date-check" d="M896.003 789.333c-0.070 23.536-19.131 42.597-42.66 42.667h-85.343v42.667c0 23.564-19.103 42.667-42.667 42.667s-42.667-19.103-42.667-42.667v0-42.667h-426.667v42.667c0 23.564-19.103 42.667-42.667 42.667s-42.667-19.103-42.667-42.667v0-42.667h-85.331c-23.536-0.070-42.597-19.131-42.667-42.66v-128.007h853.333zM768.003 473.6c46.753-0.019 90.818-11.513 129.536-31.817l-1.536 0.734v176.15h-853.333v-554.667c0.070-23.536 19.131-42.597 42.66-42.667h459.205c-36.267 46.863-58.135 106.467-58.135 171.179 0 155.241 125.847 281.088 281.088 281.088 0.181 0 0.363 0 0.544-0.001h-0.028zM339.617 192c-0.070-23.536-19.131-42.596-42.66-42.667h-85.34c-23.534 0.074-42.592 19.132-42.667 42.66v85.34c0.074 23.534 19.132 42.592 42.66 42.667h85.34c23.536-0.070 42.596-19.131 42.667-42.66v-0.007zM768.003 405.333c-117.821 0-213.333-95.513-213.333-213.333s95.513-213.333 213.333-213.333c117.821 0 213.333 95.513 213.333 213.333v0c0 117.821-95.513 213.333-213.333 213.333v0zM848.659 215.083l-85.458-85.419c-5.023-5.020-11.962-8.125-19.625-8.125s-14.601 3.105-19.625 8.125l-36.583 36.583c-5.068 5.030-8.205 11.999-8.205 19.701 0 15.328 12.426 27.754 27.754 27.754 7.702 0 14.67-3.137 19.699-8.203l0.002-0.002 16.958-17 65.835 65.835c5.022 5.022 11.961 8.129 19.625 8.129 15.328 0 27.754-12.426 27.754-27.754 0-7.664-3.106-14.602-8.129-19.625v0z" />
<glyph unicode="&#xe915;" glyph-name="calendar-date-check-o" d="M110.933 89.6v529.067h716.791v-76.565c26.095-8.868 48.66-19.77 69.595-33.014l-1.324 0.782v279.464c-0.070 23.536-19.131 42.597-42.66 42.667h-85.34v42.667c0 23.564-19.103 42.667-42.667 42.667s-42.667-19.103-42.667-42.667v0-42.667h-426.667v42.667c0 23.564-19.103 42.667-42.667 42.667s-42.667-19.103-42.667-42.667v0-42.667h-85.333c-23.536-0.070-42.597-19.131-42.667-42.66v-725.34c0.070-23.536 19.131-42.597 42.66-42.667h396.413c-17.467 19.836-32.777 42.257-45.147 66.432l-0.853 1.835zM221.871 362.667h85.333c23.564 0 42.667-19.103 42.667-42.667v-85.333c0-23.564-19.103-42.667-42.667-42.667h-85.333c-23.564 0-42.667 19.103-42.667 42.667v85.333c0 23.564 19.103 42.667 42.667 42.667zM725.329 490.667c-141.385 0-256-114.615-256-256s114.615-256 256-256c141.385 0 256 114.615 256 256v0c0 141.385-114.615 256-256 256v0zM725.329 46.933c-0.001 0-0.003 0-0.004 0-103.682 0-187.733 84.051-187.733 187.733s84.051 187.733 187.733 187.733c103.682 0 187.733-84.051 187.733-187.733v0c-0.118-103.633-84.096-187.613-187.717-187.733h-0.012zM778.913 305.542l-82.917-82.917-24.25 24.292c-5.022 5.022-11.961 8.129-19.625 8.129-15.328 0-27.754-12.426-27.754-27.754 0-7.664 3.106-14.602 8.129-19.625l43.875-43.875c5.023-5.020 11.962-8.125 19.625-8.125s14.601 3.105 19.625 8.125l102.541 102.5c5.022 5.022 8.129 11.961 8.129 19.625 0 15.328-12.426 27.754-27.754 27.754-7.664 0-14.602-3.106-19.625-8.129v0z" />
<glyph unicode="&#xe916;" glyph-name="calendar-default" d="M896.003 832h-85.336v42.679c0 23.564-19.103 42.667-42.667 42.667s-42.667-19.103-42.667-42.667v0-42.679h-426.667v42.679c0 23.564-19.103 42.667-42.667 42.667s-42.667-19.103-42.667-42.667v0-42.679h-85.331c-23.536-0.070-42.597-19.131-42.667-42.66v-127.947h853.333v127.94c-0.070 23.536-19.131 42.597-42.66 42.667h-0.007zM85.336 64.002c0.075-23.522 19.14-42.566 42.663-42.607h768.004c23.527 0.041 42.592 19.085 42.667 42.6v554.733h-853.333zM211.617 277.333c0.073 23.535 19.132 42.594 42.66 42.667h85.34c23.536-0.070 42.597-19.131 42.667-42.66v-85.34c-0.070-23.536-19.131-42.596-42.66-42.667h-85.34c-23.534 0.074-42.592 19.132-42.667 42.66v0.007z" />
<glyph unicode="&#xe917;" glyph-name="calendar-reminder" d="M896.003 789.333c-0.070 23.536-19.131 42.597-42.66 42.667h-85.343v42.667c0 23.564-19.103 42.667-42.667 42.667s-42.667-19.103-42.667-42.667v0-42.667h-426.667v42.667c0 23.564-19.103 42.667-42.667 42.667s-42.667-19.103-42.667-42.667v0-42.667h-85.331c-23.536-0.070-42.597-19.131-42.667-42.66v-128.007h853.333zM768.003 405.333c-117.821 0-213.333-95.513-213.333-213.333s95.513-213.333 213.333-213.333c117.821 0 213.333 95.513 213.333 213.333v0c0 117.821-95.513 213.333-213.333 213.333v0zM841.242 164.25h-45.5v-45.5c0-15.326-12.424-27.75-27.75-27.75s-27.75 12.424-27.75 27.75v0 45.5h-45.501c-15.326 0-27.75 12.424-27.75 27.75s12.424 27.75 27.75 27.75h45.5v45.5c0 15.326 12.424 27.75 27.75 27.75s27.75-12.424 27.75-27.75v0-45.5h45.5c15.326 0 27.75-12.424 27.75-27.75s-12.424-27.75-27.75-27.75v0zM768.003 473.6c46.753-0.019 90.818-11.513 129.536-31.817l-1.536 0.734v176.15h-853.333v-554.667c0.070-23.536 19.131-42.597 42.66-42.667h459.205c-36.267 46.863-58.135 106.467-58.135 171.179 0 155.241 125.847 281.088 281.088 281.088 0.181 0 0.363 0 0.544-0.001h-0.028zM341.333 192c-0.070-23.536-19.131-42.596-42.66-42.667h-85.34c-23.534 0.074-42.592 19.133-42.667 42.66v85.34c0.074 23.534 19.133 42.592 42.66 42.667h85.34c23.536-0.070 42.596-19.131 42.667-42.66v-0.007z" />
<glyph unicode="&#xe918;" glyph-name="calendar-reminder-o" d="M725.329 490.667c-141.385 0-256-114.615-256-256s114.615-256 256-256c141.385 0 256 114.615 256 256v0c0 141.385-114.615 256-256 256v0zM725.329 46.933c-0.001 0-0.003 0-0.004 0-103.682 0-187.733 84.051-187.733 187.733s84.051 187.733 187.733 187.733c103.682 0 187.733-84.051 187.733-187.733v0c-0.118-103.633-84.096-187.613-187.717-187.733h-0.012zM802.121 262.417h-49.041v49.041c0 15.326-12.424 27.75-27.75 27.75s-27.75-12.424-27.75-27.75v0-49.041h-49.042c-15.326 0-27.75-12.424-27.75-27.75s12.424-27.75 27.75-27.75h49.042v-49.041c0-15.326 12.424-27.75 27.75-27.75s27.75 12.424 27.75 27.75v49.041h49.041c15.326 0 27.75 12.424 27.75 27.75s-12.424 27.75-27.75 27.75v0zM110.933 89.6v529.067h716.791v-76.565c26.095-8.868 48.66-19.77 69.595-33.014l-1.324 0.782v279.464c-0.070 23.536-19.131 42.597-42.66 42.667h-85.34v42.667c0 23.564-19.103 42.667-42.667 42.667s-42.667-19.103-42.667-42.667v0-42.667h-426.667v42.667c0 23.564-19.103 42.667-42.667 42.667s-42.667-19.103-42.667-42.667v0-42.667h-85.333c-23.536-0.070-42.597-19.131-42.667-42.66v-725.34c0.070-23.536 19.131-42.597 42.66-42.667h396.413c-17.467 19.836-32.777 42.257-45.147 66.432l-0.853 1.835zM221.871 362.667h85.333c23.564 0 42.667-19.103 42.667-42.667v-85.333c0-23.564-19.103-42.667-42.667-42.667h-85.333c-23.564 0-42.667 19.103-42.667 42.667v85.333c0 23.564 19.103 42.667 42.667 42.667z" />
<glyph unicode="&#xe919;" glyph-name="card-o" d="M379.375 815.304h-145.083c-49.458-0.043-89.54-40.125-89.583-89.579v-145.045c0.039-49.468 40.118-89.562 89.577-89.625h145.089c49.465 0.063 89.544 40.157 89.583 89.621v145.045c-0.043 49.458-40.125 89.54-89.579 89.583h-0.004zM400.708 580.68c-0.156-11.728-9.609-21.196-21.316-21.376h-145.1c-11.724 0.18-21.178 9.648-21.333 21.361v145.056c0.175 11.711 9.622 21.159 21.317 21.333h145.1c11.711-0.175 21.159-9.622 21.333-21.317v-0.017zM789.708 815.304h-145.083c-49.458-0.043-89.54-40.125-89.583-89.579v-145.045c0.039-49.468 40.118-89.562 89.577-89.625h145.089c49.465 0.063 89.544 40.157 89.583 89.621v145.045c-0.043 49.458-40.125 89.54-89.579 89.583h-0.004zM811.042 580.68c-0.156-11.728-9.609-21.196-21.316-21.376h-145.1c-11.724 0.18-21.178 9.648-21.333 21.361v145.056c0.175 11.711 9.622 21.159 21.317 21.333h145.1c11.711-0.175 21.159-9.622 21.333-21.317v-0.017zM379.375 404.929h-145.083c-49.458-0.043-89.54-40.125-89.583-89.579v-145.087c0.043-49.458 40.125-89.54 89.579-89.583h145.088c49.458 0.043 89.54 40.125 89.583 89.579v145.087c-0.043 49.458-40.125 89.54-89.579 89.583h-0.004zM400.708 170.263c-0.175-11.711-9.622-21.159-21.317-21.333h-145.1c-11.711 0.175-21.159 9.622-21.333 21.317v145.1c0.175 11.711 9.622 21.158 21.317 21.333h145.1c11.711-0.175 21.158-9.622 21.333-21.317v-0.017zM789.708 404.929h-145.083c-49.458-0.043-89.54-40.125-89.583-89.579v-145.087c0.043-49.458 40.125-89.54 89.579-89.583h145.088c49.458 0.043 89.54 40.125 89.583 89.579v145.087c-0.043 49.458-40.125 89.54-89.579 89.583h-0.004zM811.042 170.263c-0.175-11.711-9.622-21.159-21.317-21.333h-145.1c-11.711 0.175-21.159 9.622-21.333 21.317v145.1c0.175 11.711 9.622 21.158 21.317 21.333h145.1c11.711-0.175 21.158-9.622 21.333-21.317v-0.017z" />
<glyph unicode="&#xe91a;" glyph-name="chat" d="M981.333 431.192c-4 44.015-40.64 78.258-85.316 78.432h-341.351c-47.070-0.145-85.188-38.264-85.333-85.319v-256.014c0.145-47.070 38.264-85.188 85.319-85.333h274.139l94.293-94.293c6.175-6.18 14.708-10.003 24.134-10.003 18.841 0 34.115 15.274 34.115 34.115 0 0.005 0 0.010 0 0.015v-0.001s0.115 417.836 0 418.401zM651.656 254.132c-23.564 0-42.667 19.103-42.667 42.667s19.103 42.667 42.667 42.667c23.564 0 42.667-19.103 42.667-42.667 0-0.001 0-0.002 0-0.003v0c-0.006-23.561-19.105-42.659-42.666-42.664v0zM799 254.127c-23.565 0.003-42.667 19.107-42.667 42.672 0 23.567 19.105 42.672 42.672 42.672s42.672-19.105 42.672-42.672c0-0.001 0-0.002 0-0.003v0c0-0.001 0-0.002 0-0.003 0-23.564-19.103-42.667-42.667-42.667-0.004 0-0.008 0-0.011 0h0.001zM247.458 533.346h178.75c31.206 37.598 77.884 61.418 130.132 61.612h322.429c0.043 14.396 0.094 23.615 0.146 23.615v179.302c-0.073 65.945-53.512 119.385-119.45 119.459h-597.34c-65.946-0.073-119.386-53.513-119.458-119.452v-682.674c0-0.002 0-0.004 0-0.007 0-18.843 15.275-34.118 34.118-34.118 9.425 0 17.957 3.822 24.132 10l160.667 160.667h122.417v172.541c0.798 14.84 3.369 28.773 7.513 42.011l-0.325-1.206h-143.729c-18.795 0.069-34.005 15.321-34.005 34.125s15.21 34.056 33.998 34.125h0.007zM247.458 704.012h426.667c0.036 0 0.078 0 0.121 0 18.847 0 34.125-15.278 34.125-34.125s-15.278-34.125-34.125-34.125c-0.042 0-0.085 0-0.127 0h-426.66c-18.795 0.069-34.005 15.321-34.005 34.125s15.21 34.056 33.998 34.125h0.007z" />
<glyph unicode="&#xe91b;" glyph-name="chat-o" d="M249.163 704.012c-18.795-0.069-34.005-15.321-34.005-34.125s15.21-34.056 33.998-34.125h426.674c0.036 0 0.078 0 0.121 0 18.847 0 34.125 15.278 34.125 34.125s-15.278 34.125-34.125 34.125c-0.042 0-0.085 0-0.127 0h0.007zM215.040 499.221c0.010-18.843 15.282-34.115 34.124-34.125h142.030c6.741 26.356 18.868 49.271 35.211 68.491l-0.2-0.241h-177.042c-18.842-0.011-34.113-15.283-34.123-34.124v-0.001zM261.58 320.015c-0.001 0-0.002 0-0.003 0-18.85 0-35.915-7.641-48.268-19.995l-102.375-102.377v600.232c0.031 28.259 22.929 51.159 51.184 51.192h597.337c28.259-0.033 51.157-22.934 51.188-51.19v-0.003s0.043-193.625-0.062-202.917h68.187c0.052 14.396 0.146 202.917 0.146 202.917-0.072 65.946-53.512 119.387-119.452 119.459h-597.34c-65.946-0.073-119.386-53.513-119.458-119.452v-682.674c0-0.002 0-0.004 0-0.007 0-18.843 15.275-34.118 34.118-34.118 9.425 0 17.957 3.822 24.132 10l160.667 160.667h122.42v68.267zM663.055 339.337c-0.003 0-0.007 0-0.012 0-23.567 0-42.672-19.105-42.672-42.672s19.105-42.672 42.672-42.672c23.566 0 42.671 19.104 42.672 42.67v0c0 0 0 0.001 0 0.001 0 23.563-19.098 42.666-42.66 42.673h-0.001zM791.048 339.337c-23.564 0-42.667-19.103-42.667-42.667s19.103-42.667 42.667-42.667c23.564 0 42.667 19.103 42.667 42.667v0c0 23.564-19.103 42.667-42.667 42.667v0zM981.333 431.173c-4.001 44.015-40.64 78.258-85.315 78.437h-341.351c-47.071-0.141-85.192-38.262-85.333-85.32v-256.014c0.141-47.071 38.262-85.192 85.32-85.333h274.139l94.293-94.293c6.175-6.18 14.708-10.003 24.134-10.003 18.841 0 34.115 15.274 34.115 34.115 0 0.005 0 0.010 0 0.015v-0.001s0.115 417.833 0 418.396zM913.062 168.251v-73.039l-55.989 55.997h-302.406c-9.373 0.129-16.936 7.694-17.062 17.055v256.012c0.126 9.373 7.69 16.938 17.050 17.067h341.345c8.808-0.197 15.953-7.057 16.601-15.727l0.003-0.057 0.333-4.053 0.125-0.649z" />
<glyph unicode="&#xe91c;" glyph-name="check" d="M390.016 192c-11.781 0.003-22.446 4.78-30.165 12.501l-182.699 182.656c-7.41 7.665-11.977 18.12-11.977 29.641 0 23.564 19.103 42.667 42.667 42.667 11.521 0 21.976-4.567 29.653-11.989l152.521-152.479 396.501 396.501c7.665 7.41 18.12 11.977 29.641 11.977 23.564 0 42.667-19.103 42.667-42.667 0-11.521-4.567-21.976-11.989-29.653l-426.655-426.655c-7.719-7.722-18.384-12.499-30.165-12.501h-0.001z" />
<glyph unicode="&#xe91d;" glyph-name="check-circle" d="M512 917.333c-259.206 0-469.333-210.128-469.333-469.333s210.128-469.333 469.333-469.333c259.206 0 469.333 210.128 469.333 469.333v0c0 259.206-210.128 469.333-469.333 469.333v0zM749.355 573.184l-298.667-298.667c-6.174-6.159-14.696-9.968-24.107-9.968s-17.933 3.809-24.107 9.969l-127.999 127.999c-6.9 6.269-11.214 15.278-11.214 25.294 0 18.851 15.282 34.133 34.133 34.133 10.017 0 19.025-4.314 25.269-11.186l0.025-0.028 103.979-103.723 274.56 274.475c6.065 5.615 14.21 9.059 23.159 9.059 18.851 0 34.133-15.282 34.133-34.133 0-8.96-3.452-17.114-9.1-23.204l0.020 0.022z" />
<glyph unicode="&#xe91e;" glyph-name="chevron-down" d="M842.539 606.165c-16.555 16.555-43.776 16.555-60.331 0l-268.501-268.501-268.501 268.501c-7.936 7.68-18.603 11.989-29.653 11.989-23.381 0-42.667-19.285-42.667-42.667 0-11.051 4.309-21.717 11.989-29.653l298.667-298.667c16.555-16.555 43.776-16.555 60.331 0l298.667 298.667c16.555 16.555 16.555 43.776 0 60.331z" />
<glyph unicode="&#xe91f;" glyph-name="chevron-down-small" d="M712.832 520.832c-7.719 7.723-18.385 12.5-30.167 12.5s-22.448-4.777-30.166-12.5l-140.499-140.499-140.501 140.499c-7.692 7.558-18.247 12.223-29.892 12.223-23.562 0-42.662-19.1-42.662-42.662 0-11.645 4.666-22.2 12.229-29.898l170.661-170.661c7.719-7.723 18.385-12.5 30.167-12.5s22.448 4.777 30.166 12.5l170.667 170.667c7.722 7.719 12.498 18.384 12.498 30.164 0 11.782-4.777 22.448-12.5 30.166v0z" />
<glyph unicode="&#xe920;" glyph-name="chevron-left" d="M401.664 446.293l268.501 268.501c8.32 8.021 13.013 19.115 13.013 30.677 0 23.424-19.243 42.667-42.667 42.667-11.563 0-22.656-4.693-30.677-13.013l-298.667-298.667c-16.555-16.555-16.555-43.776 0-60.331l298.667-298.667c7.936-7.68 18.603-11.989 29.653-11.989 23.381 0 42.667 19.285 42.667 42.667 0 11.051-4.309 21.717-11.989 29.653l-268.501 268.501z" />
<glyph unicode="&#xe921;" glyph-name="chevron-left-circle" d="M512 917.333c-259.206 0-469.333-210.128-469.333-469.333s210.128-469.333 469.333-469.333c259.206 0 469.333 210.128 469.333 469.333v0c0 259.206-210.128 469.333-469.333 469.333v0zM586.916 295.345c6.556-6.452 10.618-15.42 10.618-25.338 0-19.629-15.912-35.541-35.541-35.541-9.917 0-18.886 4.062-25.333 10.613l-177.791 177.791c-6.436 6.43-10.417 15.315-10.417 25.131s3.981 18.701 10.417 25.13v0l177.785 177.785c6.41 6.309 15.212 10.204 24.924 10.204 19.629 0 35.541-15.912 35.541-35.541 0-9.712-3.895-18.514-10.208-24.929l-152.649-152.65z" />
<glyph unicode="&#xe922;" glyph-name="chevron-left-circle-o" d="M512 917.333c-259.206 0-469.333-210.128-469.333-469.333s210.128-469.333 469.333-469.333c259.206 0 469.333 210.128 469.333 469.333v0c0 259.206-210.128 469.333-469.333 469.333v0zM512 46.933c-0.001 0-0.003 0-0.004 0-221.503 0-401.067 179.564-401.067 401.067s179.564 401.067 401.067 401.067c221.503 0 401.067-179.564 401.067-401.067v0c-0.258-221.398-179.665-400.806-401.037-401.067h-0.025zM584.832 648.846c-7.719 7.723-18.385 12.5-30.167 12.5s-22.447-4.777-30.166-12.5l-170.667-170.667c-7.723-7.719-12.5-18.385-12.5-30.167s4.777-22.448 12.5-30.166l170.667-170.667c7.72-7.72 18.386-12.495 30.167-12.495 23.562 0 42.662 19.1 42.662 42.662 0 11.781-4.775 22.446-12.495 30.167v0l-140.501 140.501 140.501 140.501c7.722 7.719 12.499 18.384 12.499 30.165s-4.777 22.446-12.499 30.165v0z" />
<glyph unicode="&#xe923;" glyph-name="chevron-left-small" d="M487 448l140.501 140.501c7.607 7.701 12.306 18.289 12.306 29.975 0 23.562-19.1 42.662-42.662 42.662-11.687 0-22.276-4.699-29.981-12.311l-170.663-170.663c-7.723-7.719-12.5-18.385-12.5-30.167s4.777-22.448 12.5-30.166l170.667-170.667c7.701-7.607 18.289-12.306 29.975-12.306 23.562 0 42.662 19.1 42.662 42.662 0 11.687-4.699 22.276-12.311 29.981l0.004-0.004z" />
<glyph unicode="&#xe924;" glyph-name="chevron-right" d="M712.832 479.872l-298.667 298.667c-7.936 7.68-18.603 11.989-29.653 11.989-23.381 0-42.667-19.285-42.667-42.667 0-11.051 4.309-21.717 11.989-29.653l268.501-268.501-268.501-268.501c-8.32-8.021-13.013-19.115-13.013-30.677 0-23.424 19.243-42.667 42.667-42.667 11.563 0 22.656 4.693 30.677 13.013l298.667 298.667c16.555 16.555 16.555 43.776 0 60.331z" />
<glyph unicode="&#xe925;" glyph-name="chevron-right-circle" d="M512 917.333c-259.206 0-469.333-210.128-469.333-469.333s210.128-469.333 469.333-469.333c259.206 0 469.333 210.128 469.333 469.333v0c0 259.206-210.128 469.333-469.333 469.333v0zM665.131 422.857l-177.785-177.785c-6.41-6.309-15.212-10.204-24.924-10.204-19.629 0-35.541 15.912-35.541 35.541 0 9.712 3.895 18.514 10.208 24.929l152.649 152.65-152.655 152.654c-6.309 6.41-10.204 15.212-10.204 24.924 0 19.629 15.912 35.541 35.541 35.541 9.712 0 18.514-3.895 24.929-10.208l177.781-177.779c6.436-6.43 10.417-15.316 10.417-25.131s-3.981-18.702-10.417-25.131v0z" />
<glyph unicode="&#xe926;" glyph-name="chevron-right-circle-o" d="M512 917.333c-259.206 0-469.333-210.128-469.333-469.333s210.128-469.333 469.333-469.333c259.206 0 469.333 210.128 469.333 469.333v0c0 259.206-210.128 469.333-469.333 469.333v0zM512 46.933c-0.001 0-0.003 0-0.004 0-221.503 0-401.067 179.564-401.067 401.067s179.564 401.067 401.067 401.067c221.503 0 401.067-179.564 401.067-401.067v0c-0.258-221.398-179.665-400.806-401.037-401.067h-0.025zM499.499 648.846c-7.701 7.607-18.289 12.306-29.975 12.306-23.562 0-42.662-19.1-42.662-42.662 0-11.687 4.699-22.276 12.311-29.981l140.497-140.497-140.501-140.501c-7.884-7.746-12.77-18.522-12.77-30.439 0-23.562 19.1-42.662 42.662-42.662 11.917 0 22.692 4.886 30.433 12.764l170.673 170.673c7.723 7.719 12.5 18.385 12.5 30.167s-4.777 22.448-12.5 30.166v0z" />
<glyph unicode="&#xe927;" glyph-name="chevron-right-small" d="M627.499 478.165l-170.667 170.667c-7.692 7.558-18.247 12.223-29.892 12.223-23.562 0-42.662-19.1-42.662-42.662 0-11.645 4.666-22.2 12.229-29.898l140.493-140.495-140.499-140.501c-7.884-7.746-12.77-18.522-12.77-30.439 0-23.562 19.1-42.662 42.662-42.662 11.917 0 22.692 4.886 30.433 12.764l170.673 170.673c7.722 7.719 12.499 18.384 12.499 30.165s-4.777 22.446-12.499 30.165v0z" />
<glyph unicode="&#xe928;" glyph-name="chevron-up" d="M839.125 350.165l-298.667 298.667c-7.721 7.718-18.386 12.492-30.165 12.492s-22.445-4.774-30.165-12.492l-298.667-298.667c-8.036-7.769-13.026-18.647-13.026-30.69 0-23.564 19.103-42.667 42.667-42.667 12.043 0 22.92 4.989 30.678 13.014l268.513 268.513 268.501-268.501c7.665-7.41 18.12-11.977 29.641-11.977 23.564 0 42.667 19.103 42.667 42.667 0 11.521-4.567 21.976-11.989 29.653l0.012-0.012z" />
<glyph unicode="&#xe929;" glyph-name="chevron-up-small" d="M712.832 392.832l-170.667 170.667c-7.719 7.723-18.385 12.5-30.167 12.5s-22.448-4.777-30.166-12.5l-170.667-170.667c-7.834-7.739-12.685-18.48-12.685-30.355 0-23.562 19.1-42.662 42.662-42.662 11.875 0 22.618 4.852 30.352 12.682l140.505 140.503 140.501-140.501c7.701-7.607 18.289-12.306 29.975-12.306 23.562 0 42.662 19.1 42.662 42.662 0 11.687-4.699 22.276-12.311 29.981l0.004-0.004z" />
<glyph unicode="&#xe92a;" glyph-name="clock" d="M978.901 496c-16.685 158.017-109.593 291.193-240.775 363.447l-2.425 1.225c-10.754 6.064-24.228 12.68-38.057 18.628l-2.945 1.127c-53.927 23.348-116.727 36.929-182.699 36.929s-128.771-13.581-185.755-38.099l3.057 1.17c-16.775-7.075-30.248-13.691-43.326-20.935l2.323 1.181c-147.395-81.093-245.612-235.367-245.612-412.581 0-259.206 210.128-469.333 469.333-469.333s469.333 210.128 469.333 469.333c0 16.874-0.89 33.54-2.627 49.954l0.175-2.045zM714.752 332.8c-4.914-13.206-17.413-22.443-32.069-22.443-0.006 0-0.012 0-0.017 0h0.001c-4.196 0.013-8.213 0.762-11.934 2.126l0.243-0.078-190.592 69.547c-13.206 4.914-22.443 17.413-22.443 32.069 0 0.006 0 0.012 0 0.017v-0.001 289.152c0 18.851 15.282 34.133 34.133 34.133s34.133-15.282 34.133-34.133v0-265.344l168.149-61.355c13.202-4.916 22.435-17.413 22.435-32.066 0-4.171-0.748-8.166-2.117-11.861l0.077 0.236z" />
<glyph unicode="&#xe92b;" glyph-name="clock-o" d="M665.6 386.944l-139.477 50.901v227.755c0 18.851-15.282 34.133-34.133 34.133s-34.133-15.282-34.133-34.133v0-251.733c0-0.005 0-0.011 0-0.016 0-14.656 9.237-27.155 22.207-31.992l0.236-0.077 161.877-59.093c3.481-1.27 7.5-2.005 11.69-2.005v0c18.839 0.016 34.104 15.292 34.104 34.133 0 14.629-9.203 27.109-22.136 31.965l-0.235 0.077zM512 917.333c-259.206 0-469.333-210.128-469.333-469.333s210.128-469.333 469.333-469.333c259.206 0 469.333 210.128 469.333 469.333v0c0 259.206-210.128 469.333-469.333 469.333v0zM512 46.933c-221.503 0-401.067 179.564-401.067 401.067s179.564 401.067 401.067 401.067c221.503 0 401.067-179.564 401.067-401.067v0c-0.267-221.395-179.671-400.799-401.041-401.067h-0.026z" />
<glyph unicode="&#xe92c;" glyph-name="close" d="M572.331 448l225.835 225.835c8.036 7.769 13.026 18.647 13.026 30.69 0 23.564-19.103 42.667-42.667 42.667-12.043 0-22.92-4.989-30.678-13.014l-225.847-225.847-225.835 225.835c-7.665 7.41-18.12 11.977-29.641 11.977-23.564 0-42.667-19.103-42.667-42.667 0-11.521 4.567-21.976 11.989-29.653l225.823-225.823-225.835-225.835c-8.036-7.769-13.026-18.647-13.026-30.69 0-23.564 19.103-42.667 42.667-42.667 12.043 0 22.92 4.989 30.678 13.014l225.847 225.847 225.835-225.835c7.665-7.41 18.12-11.977 29.641-11.977 23.564 0 42.667 19.103 42.667 42.667 0 11.521-4.567 21.976-11.989 29.653l0.012-0.012z" />
<glyph unicode="&#xe92d;" glyph-name="close-circle-o" d="M512 917.333c-259.206 0-469.333-210.128-469.333-469.333s210.128-469.333 469.333-469.333c259.206 0 469.333 210.128 469.333 469.333v0c0 259.206-210.128 469.333-469.333 469.333v0zM512 46.933c-0.001 0-0.003 0-0.004 0-221.503 0-401.067 179.564-401.067 401.067s179.564 401.067 401.067 401.067c221.503 0 401.067-179.564 401.067-401.067v0c-0.258-221.398-179.665-400.806-401.037-401.067h-0.025zM706.792 642.804c-6.172 6.178-14.702 10-24.125 10s-17.953-3.822-24.125-10v0l-146.542-146.542-146.542 146.542c-6.17 6.149-14.682 9.951-24.083 9.951-18.843 0-34.118-15.275-34.118-34.118 0-9.4 3.802-17.913 9.952-24.084l146.541-146.541-146.542-146.542c-6.199-6.178-10.035-14.725-10.035-24.167 0-18.843 15.275-34.118 34.118-34.118 9.442 0 17.989 3.836 24.166 10.034l146.543 146.543 146.542-146.542c6.178-6.199 14.725-10.035 24.167-10.035 18.843 0 34.118 15.275 34.118 34.118 0 9.442-3.836 17.989-10.034 24.166l-146.543 146.543 146.542 146.542c6.178 6.172 10 14.702 10 24.125s-3.822 17.953-10 24.125v0z" />
<glyph unicode="&#xe92e;" glyph-name="cobrowsing-o" d="M938.667 789.333h-298.667v-68.267h273.067v-460.8h-631.467v25.6h-68.267v-51.2c0-25.6 17.067-42.667 42.667-42.667h243.2v-115.2h-115.2c-17.067 0-34.133-17.067-34.133-34.133s17.067-34.133 34.133-34.133h426.667c17.067 0 34.133 17.067 34.133 34.133s-17.067 34.133-34.133 34.133h-115.2v115.2h243.2c25.6 0 42.667 17.067 42.667 42.667v512c0 25.6-21.333 42.667-42.667 42.667zM627.2 76.8h-59.733v115.2h59.733zM422.4 733.867v-170.667c0-59.733-42.667-110.933-98.133-119.467-8.533 8.533-21.333 17.067-34.133 17.067-25.6 0-42.667-17.067-42.667-42.667s17.067-42.667 42.667-42.667c17.067 0 29.867 8.533 38.4 21.333 64 12.8 119.467 59.733 132.267 123.733h42.667c29.867 0 51.2 21.333 51.2 51.2v89.6c0 29.867-21.333 51.2-51.2 51.2h-25.6v21.333c4.267 102.4-76.8 183.467-179.2 183.467s-183.467-81.067-183.467-179.2v-25.6h-21.333c-29.867 0-51.2-21.333-51.2-51.2v-89.6c0-29.867 21.333-51.2 51.2-51.2h68.267c4.267 0 8.533 4.267 8.533 8.533v204.8c0 68.267 55.467 123.733 123.733 123.733s128-51.2 128-123.733z" />
<glyph unicode="&#xe92f;" glyph-name="credit-card" d="M853.333 789.333h-682.667c-47.071-0.141-85.192-38.262-85.333-85.32v-85.347h853.333v85.333c-0.141 47.071-38.262 85.192-85.32 85.333h-0.014zM85.333 435.81v-243.81c0-0.024 0-0.052 0-0.080 0-11.94 2.475-23.302 6.94-33.6l-0.211 0.547c6.726-15.519 17.36-28.274 30.684-37.385l0.296-0.191c13.33-9.157 29.816-14.625 47.578-14.625 0.016 0 0.033 0 0.049 0h682.664c0.014 0 0.030 0 0.047 0 17.763 0 34.249 5.468 47.867 14.812l-0.288-0.187c13.619 9.302 24.254 22.056 30.764 37.019l0.216 0.556c4.254 9.752 6.729 21.113 6.729 33.053 0 0.028 0 0.056 0 0.084v-0.004 256h-853.333zM682.667 311.458h85.333c18.847 0 34.125-15.278 34.125-34.125s-15.278-34.125-34.125-34.125v0h-85.333c-18.847 0-34.125 15.278-34.125 34.125s15.278 34.125 34.125 34.125v0z" />
<glyph unicode="&#xe930;" glyph-name="credit-card-o" d="M853.333 789.333h-682.667c-47.070-0.145-85.188-38.264-85.333-85.319v-512.014c0.145-47.070 38.264-85.188 85.319-85.333h682.681c47.070 0.145 85.188 38.264 85.333 85.319v512.014c-0.145 47.070-38.264 85.188-85.319 85.333h-0.014zM170.667 721.067h682.667c9.378-0.119 16.948-7.689 17.067-17.055v-85.344h-716.8v85.333c0.119 9.378 7.689 16.948 17.055 17.067h0.011zM853.333 174.933h-682.667c-9.378 0.119-16.948 7.689-17.067 17.055v256.011h716.8v-256c-0.119-9.378-7.689-16.948-17.055-17.067h-0.011zM768 311.467h-85.333c-18.851 0-34.133-15.282-34.133-34.133s15.282-34.133 34.133-34.133h85.333c18.851 0 34.133 15.282 34.133 34.133s-15.282 34.133-34.133 34.133v0z" />
<glyph unicode="&#xe931;" glyph-name="dot" d="M683 448.5c0-95-76-171-171-171s-171 76-171 171c0 93 76 170 171 170s171-77 171-170z" />
<glyph unicode="&#xe932;" glyph-name="download" d="M853.333 267.605c-18.731 0-34.133-15.403-34.133-34.133v-93.867h-614.4v93.867c0 18.731-15.403 34.133-34.133 34.133s-34.133-15.403-34.133-34.133v-128c0-18.731 15.403-34.133 34.133-34.133h682.667c18.731 0 34.133 15.403 34.133 34.133v128c0 18.731-15.403 34.133-34.133 34.133zM481.792 246.059c8.021-8.021 18.859-12.544 30.208-12.544s22.187 4.523 30.208 12.544l170.667 170.667c7.68 7.936 11.989 18.603 11.989 29.653 0 23.381-19.285 42.667-42.667 42.667-11.051 0-21.717-4.309-29.653-11.989l-97.877-97.877v409.003c0 23.424-19.243 42.667-42.667 42.667s-42.667-19.243-42.667-42.667v-409.003l-97.835 97.835c-7.936 7.68-18.603 11.989-29.653 11.989-23.381 0-42.667-19.285-42.667-42.667 0-11.051 4.309-21.717 11.989-29.653l170.624-170.624z" />
<glyph unicode="&#xe933;" glyph-name="duplicate" d="M298.667 64h-85.333v682.667c-47.071-0.141-85.192-38.262-85.333-85.32v-597.347c0.14-47.072 38.262-85.193 85.32-85.333h426.68c47.072 0.14 85.193 38.262 85.333 85.32v0.013h-426.667zM810.667 917.333h-426.667c-47.071-0.141-85.192-38.262-85.333-85.32v-597.347c0.14-47.072 38.262-85.193 85.32-85.333h426.68c47.072 0.14 85.193 38.262 85.333 85.32v597.346c-0.141 47.071-38.262 85.192-85.32 85.333h-0.014zM810.667 234.667h-426.667v597.333h426.667z" />
<glyph unicode="&#xe934;" glyph-name="edit" d="M341.333 277.333l167.381 55.808 334.763 334.763-111.616 111.573-334.763-334.763-55.765-167.381zM927.159 807.37l-55.792 55.789c-7.154 7.112-17.014 11.508-27.901 11.508s-20.747-4.396-27.903-11.51l-55.78-55.789 111.584-111.584 55.792 55.792c7.112 7.152 11.508 17.011 11.508 27.897s-4.396 20.745-11.509 27.899l0.002-0.002zM785.059 149.333c-0.125-9.373-7.689-16.939-17.050-17.067h-554.679c-9.373 0.128-16.937 7.693-17.063 17.055v554.679c0.125 9.373 7.689 16.939 17.050 17.067h338.939l68.261 68.267h-407.188c-47.071-0.141-85.192-38.262-85.333-85.32v-554.681c0.14-47.072 38.262-85.193 85.32-85.333h554.68c47.072 0.14 85.193 38.262 85.333 85.32v408.917l-68.271-68.267z" />
<glyph unicode="&#xe935;" glyph-name="ellipsis-h" d="M597.333 704c0-47.128-38.205-85.333-85.333-85.333s-85.333 38.205-85.333 85.333c0 47.128 38.205 85.333 85.333 85.333s85.333-38.205 85.333-85.333zM597.333 448c0-47.128-38.205-85.333-85.333-85.333s-85.333 38.205-85.333 85.333c0 47.128 38.205 85.333 85.333 85.333s85.333-38.205 85.333-85.333zM597.333 192c0-47.128-38.205-85.333-85.333-85.333s-85.333 38.205-85.333 85.333c0 47.128 38.205 85.333 85.333 85.333s85.333-38.205 85.333-85.333z" />
<glyph unicode="&#xe936;" glyph-name="ellipsis-v" d="M343.040 448c0-47.128-38.205-85.333-85.333-85.333s-85.333 38.205-85.333 85.333c0 47.128 38.205 85.333 85.333 85.333s85.333-38.205 85.333-85.333zM599.040 448c0-47.128-38.205-85.333-85.333-85.333s-85.333 38.205-85.333 85.333c0 47.128 38.205 85.333 85.333 85.333s85.333-38.205 85.333-85.333zM855.040 448c0-47.128-38.205-85.333-85.333-85.333s-85.333 38.205-85.333 85.333c0 47.128 38.205 85.333 85.333 85.333s85.333-38.205 85.333-85.333z" />
<glyph unicode="&#xe937;" glyph-name="e-mail-read" d="M900.48 680.405l-350.336 175.189c-24.363 10.496-51.968 10.496-76.331 0l-350.336-175.189c-22.357-12.757-36.779-36.053-38.144-61.739v-554.667c0.043-23.381 19.285-42.581 42.667-42.667h768c23.381 0.085 42.581 19.285 42.667 42.667v554.667c-1.408 25.685-15.829 49.024-38.187 61.739zM155.861 620.288l347.691 173.867c2.731 0.768 5.589 1.109 8.448 1.024 2.517 0 5.077-0.213 7.595-0.683l0.043 0.043 348.459-174.251c0.939-1.109 1.707-2.389 2.261-3.712v-57.259l-358.357-159.317-358.4 159.317v57.259c0.597 1.323 1.323 2.603 2.261 3.712z" />
<glyph unicode="&#xe938;" glyph-name="e-mail-read-o" d="M900.48 680.415l-350.331 175.172c-11.25 4.974-24.37 7.87-38.167 7.87s-26.916-2.896-38.785-8.112l0.619 0.243-350.333-175.172c-21.859-12.625-36.683-35.304-38.158-61.55l-0.009-0.198v-554.667c0.071-23.536 19.131-42.596 42.66-42.667h768.007c23.536 0.071 42.596 19.131 42.667 42.66v554.674c-1.484 26.445-16.309 49.123-37.804 61.553l-0.365 0.195zM155.867 620.282l347.677 173.882c2.325 0.655 4.994 1.032 7.752 1.032 0.241 0 0.481-0.003 0.721-0.009l-0.036 0.001c2.703-0.018 5.335-0.261 7.897-0.713l-0.282 0.041 0.020 0.008 348.479-174.243c0.885-1.067 1.648-2.284 2.241-3.595l0.041-0.101v-57.263l-358.396-159.328-358.395 159.328v57.263c0.634 1.411 1.397 2.628 2.303 3.722l-0.022-0.027zM153.586 89.6v394.974l344.521-153.12c4.084-1.843 8.854-2.917 13.875-2.917s9.791 1.074 14.093 3.004l-0.218-0.087 344.521 153.12v-394.974z" />
<glyph unicode="&#xe939;" glyph-name="exclamation-circle" d="M981.333 448c-0.046 259.171-210.156 469.253-469.333 469.253-259.206 0-469.333-210.128-469.333-469.333 0-177.222 98.227-331.502 243.207-411.367l2.425-1.224q19.883-10.88 41.003-19.797c53.932-23.321 116.731-36.885 182.699-36.885s128.767 13.564 185.761 38.056l-3.063-1.171q21.077 8.96 41.003 19.797c147.397 80.992 245.632 235.205 245.632 412.363 0 0.109 0 0.218 0 0.326v-0.017zM554.667 392.533c0-16.495-13.372-29.867-29.867-29.867v0h-25.6c-16.495 0-29.867 13.372-29.867 29.867v0 281.6c0 16.495 13.372 29.867 29.867 29.867v0h25.6c16.495 0 29.867-13.372 29.867-29.867v0zM558.933 234.667c0-23.564-19.103-42.667-42.667-42.667v0h-8.533c-23.564 0-42.667 19.103-42.667 42.667v0 8.533c0 23.564 19.103 42.667 42.667 42.667v0h8.533c23.564 0 42.667-19.103 42.667-42.667v0z" />
<glyph unicode="&#xe93a;" glyph-name="exclamation-circle-o" d="M981.333 448c0 259.206-210.128 469.333-469.333 469.333s-469.333-210.128-469.333-469.333c0-259.206 210.128-469.333 469.333-469.333v0c259.206 0 469.333 210.128 469.333 469.333v0zM913.067 448c0-221.503-179.564-401.067-401.067-401.067s-401.067 179.564-401.067 401.067c0 221.503 179.564 401.067 401.067 401.067v0c221.395-0.267 400.799-179.671 401.067-401.041v-0.026zM499.2 704h25.6c16.495 0 29.867-13.372 29.867-29.867v-281.6c0-16.495-13.372-29.867-29.867-29.867h-25.6c-16.495 0-29.867 13.372-29.867 29.867v281.6c0 16.495 13.372 29.867 29.867 29.867zM507.733 285.867h8.533c23.564 0 42.667-19.103 42.667-42.667v-8.533c0-23.564-19.103-42.667-42.667-42.667h-8.533c-23.564 0-42.667 19.103-42.667 42.667v8.533c0 23.564 19.103 42.667 42.667 42.667z" />
<glyph unicode="&#xe93b;" glyph-name="exclamation-triangle" d="M980.48 68.267l-438.613 810.667c-6.528 10.24-17.877 16.469-30.037 16.469s-23.509-6.229-30.037-16.469l-438.272-810.667c-2.688-4.992-4.139-10.581-4.139-16.256 0-18.688 15.317-34.048 34.005-34.133h877.056c18.688 0.085 34.005 15.445 34.005 34.133 0 5.675-1.451 11.264-4.139 16.256h0.171zM469.333 503.467c0 16.384 13.483 29.867 29.867 29.867h25.6c16.384 0 29.867-13.483 29.867-29.867v-153.6c0-16.384-13.483-29.867-29.867-29.867h-25.6c-16.384 0-29.867 13.483-29.867 29.867v153.6zM558.933 192c0-23.424-19.243-42.667-42.667-42.667h-8.533c-23.424 0-42.667 19.243-42.667 42.667v8.533c0 23.424 19.243 42.667 42.667 42.667h8.533c23.424 0 42.667-19.243 42.667-42.667v-8.533z" />
<glyph unicode="&#xe93c;" glyph-name="exclamation-triangle-o" d="M977.27 71.361l-435.436 805.078c-6.374 9.913-17.349 16.386-29.835 16.386s-23.461-6.473-29.75-16.246l-0.084-0.14-435.436-805.078c-2.566-4.66-4.076-10.213-4.076-16.119 0-18.728 15.182-33.909 33.909-33.909 0 0 0.001 0 0.001 0h870.869c0 0 0.001 0 0.001 0 18.728 0 33.909 15.182 33.909 33.909 0 5.906-1.51 11.459-4.164 16.295l0.089-0.176zM133.419 89.113l378.581 699.933 378.581-699.933zM499.285 530.409h25.425c16.382 0 29.661-13.28 29.661-29.661v0-149.669c0-16.382-13.28-29.661-29.661-29.661v0h-25.425c-16.38 0-29.659 13.279-29.659 29.659v0 149.675c0 16.38 13.279 29.658 29.659 29.658v0zM507.759 245.147h8.483c23.402 0 42.373-18.971 42.373-42.373v-8.475c0-23.402-18.971-42.373-42.373-42.373h-8.483c-23.402 0-42.373 18.971-42.373 42.373v8.475c0 23.402 18.971 42.373 42.373 42.373z" />
<glyph unicode="&#xe93d;" glyph-name="export-and-share" d="M810.663 576h-106.667v-68.267h81.062v-418.133h-546.125v418.133h81.062v68.267h-106.667c-23.534-0.074-42.592-19.132-42.667-42.66v-469.34c0.074-23.534 19.133-42.592 42.66-42.667h597.34c23.536 0.071 42.596 19.131 42.667 42.66v469.34c-0.070 23.536-19.131 42.596-42.659 42.667h-0.007zM383.996 661.333c0.014 0 0.031 0 0.048 0 11.766 0 22.417 4.778 30.116 12.5l55.169 55.169v-409.003c0-23.564 19.103-42.667 42.667-42.667s42.667 19.103 42.667 42.667v0 409l55.168-55.168c7.71-7.66 18.334-12.394 30.065-12.394 23.562 0 42.662 19.1 42.662 42.662 0 11.731-4.734 22.355-12.397 30.068l-127.946 127.944c-7.74 7.72-18.422 12.494-30.219 12.494s-22.479-4.774-30.22-12.495l-127.947-127.945c-7.718-7.721-12.492-18.386-12.492-30.165 0-23.561 19.098-42.662 42.658-42.667v0z" />
<glyph unicode="&#xe93e;" glyph-name="facebook" d="M853.333 64h-200.533v298.667h98.133l17.067 115.2h-115.2v72.533c0 34.133 8.533 55.467 55.467 55.467h59.733v106.667c-8.533 0-46.933 4.267-89.6 4.267-2.955 0.222-6.4 0.348-9.875 0.348-77.397 0-140.14-62.743-140.14-140.14 0-4.863 0.248-9.668 0.731-14.403l-0.049 0.595v-85.333h-98.133v-115.2h98.133v-298.667h-358.4c-23.544 0.051-42.616 19.123-42.667 42.662v682.672c0.051 23.544 19.123 42.616 42.662 42.667h682.672c23.544-0.051 42.616-19.123 42.667-42.662v-682.672c0.047-0.726 0.073-1.575 0.073-2.43 0-22.263-18.047-40.31-40.31-40.31-0.855 0-1.703 0.027-2.545 0.079l0.115-0.006z" />
<glyph unicode="&#xe93f;" glyph-name="facebook-circle" d="M512 917.333c-259.206 0-469.333-210.128-469.333-469.333s210.128-469.333 469.333-469.333c259.206 0 469.333 210.128 469.333 469.333v0c-0.782 258.89-210.443 468.551-469.258 469.333h-0.075zM625.92 448h-79.787v-290.987h-122.027v290.987h-56.32v103.253h56.32v65.707c-0.185 2.436-0.291 5.276-0.291 8.141 0 63.058 51.118 114.176 114.176 114.176 2.865 0 5.705-0.106 8.517-0.313l-0.376 0.022h89.173v-98.56h-65.707c-9.387 0-23.467-4.693-23.467-28.16v-61.013h93.867z" />
<glyph unicode="&#xe940;" glyph-name="file" d="M853.035 669.867c0.128 9.088-3.371 17.877-9.728 24.405l-213.333 213.333c-6.613 6.485-15.659 10.027-24.917 9.728h-349.056c-46.763-0.128-85.205-38.571-85.333-85.333v-768c0.128-46.763 38.571-85.205 85.333-85.333h512c46.763 0.128 85.205 38.571 85.333 85.333v605.397l-0.299 0.469zM736.768 704h-96.768v96.853l96.768-96.853zM768 46.933h-512c-9.301 0.128-16.939 7.765-17.067 17.067v768c0.128 9.301 7.765 16.939 17.067 17.067h315.733v-179.2c0-18.731 15.403-34.133 34.133-34.133h179.2v-571.733c-0.128-9.301-7.765-16.939-17.067-17.067z" />
<glyph unicode="&#xe941;" glyph-name="file-text" d="M682.667 439.467h-341.333c-18.851 0-34.133-15.282-34.133-34.133s15.282-34.133 34.133-34.133h341.333c18.851 0 34.133 15.282 34.133 34.133s-15.282 34.133-34.133 34.133v0zM682.667 311.467h-341.333c-18.851 0-34.133-15.282-34.133-34.133s15.282-34.133 34.133-34.133h341.333c18.851 0 34.133 15.282 34.133 34.133s-15.282 34.133-34.133 34.133v0zM512 183.467h-170.667c-18.851 0-34.133-15.282-34.133-34.133s15.282-34.133 34.133-34.133h170.667c18.851 0 34.133 15.282 34.133 34.133s-15.282 34.133-34.133 34.133v0zM853.035 669.867c0.003 0.16 0.004 0.349 0.004 0.538 0 9.293-3.714 17.719-9.738 23.874l-213.327 213.327c-6.15 6.025-14.581 9.744-23.88 9.744-0.365 0-0.729-0.006-1.091-0.017l0.053 0.001h-349.056c-47.070-0.145-85.188-38.264-85.333-85.319v-768.014c0.145-47.070 38.264-85.188 85.319-85.333h512.014c47.070 0.145 85.188 38.264 85.333 85.319v605.411zM736.768 704h-96.768v96.853zM768 46.933h-512c-9.378 0.119-16.948 7.689-17.067 17.055v768.011c0.119 9.378 7.689 16.948 17.055 17.067h315.744v-179.2c0-18.851 15.282-34.133 34.133-34.133v0h179.2v-571.733c-0.119-9.378-7.689-16.948-17.055-17.067h-0.011z" />
<glyph unicode="&#xe942;" glyph-name="filter" d="M895.996 482.138h-474.521c-15.19 54.523-64.407 93.862-122.813 93.862s-107.623-39.34-122.599-92.967l-0.213-0.895h-47.854c-0.036 0-0.078 0-0.121 0-18.847 0-34.125-15.278-34.125-34.125s15.278-34.125 34.125-34.125c0.042 0 0.085 0 0.127 0h47.847c15.178-54.535 64.4-93.887 122.813-93.887s107.634 39.353 122.599 92.992l0.213 0.895h474.521c18.795 0.069 34.005 15.321 34.005 34.125s-15.21 34.056-33.998 34.125h-0.007zM298.663 388.265c-20.181 0.026-38.009 10.073-48.779 25.431l-0.127 0.191c-2.888 4.184-5.344 8.991-7.132 14.112l-0.129 0.424c-0.354 1.021-0.666 2.060-0.958 3.104-1.651 4.923-2.604 10.591-2.604 16.482s0.953 11.559 2.713 16.859l-0.109-0.378c0.302 1.039 0.604 2.073 0.958 3.089 1.918 5.553 4.382 10.367 7.413 14.759l-0.132-0.202c10.882 15.552 28.711 25.596 48.885 25.596s38.003-10.044 48.758-25.405l0.127-0.191c2.9-4.19 5.363-9.004 7.153-14.135l0.128-0.423c0.354-1.015 0.656-2.048 0.958-3.089 1.651-4.925 2.604-10.597 2.604-16.491 0-5.882-0.949-11.543-2.702-16.838l0.108 0.378c-0.302-1.052-0.614-2.101-0.969-3.13-1.916-5.54-4.372-10.343-7.393-14.727l0.132 0.203c-10.898-15.549-28.726-25.595-48.902-25.621h-0.004zM895.996 738.138h-47.854c-15.19 54.523-64.407 93.862-122.813 93.862s-107.623-39.34-122.599-92.967l-0.213-0.895h-474.521c-0.036 0-0.078 0-0.121 0-18.847 0-34.125-15.278-34.125-34.125s15.278-34.125 34.125-34.125c0.042 0 0.085 0 0.127 0h474.514c15.178-54.535 64.4-93.887 122.813-93.887s107.634 39.353 122.599 92.992l0.213 0.895h47.854c18.795 0.069 34.005 15.321 34.005 34.125s-15.21 34.056-33.998 34.125h-0.007zM782.464 687.541c-0.302-1.052-0.614-2.101-0.969-3.13-1.916-5.54-4.372-10.343-7.393-14.727l0.132 0.203c-10.881-15.567-28.72-25.623-48.906-25.623s-38.025 10.055-48.779 25.43l-0.127 0.192c-2.888 4.184-5.344 8.991-7.132 14.112l-0.129 0.424c-0.354 1.021-0.666 2.060-0.958 3.104-1.651 4.923-2.604 10.591-2.604 16.482s0.953 11.559 2.713 16.859l-0.109-0.378c0.302 1.039 0.604 2.073 0.958 3.089 1.918 5.553 4.382 10.367 7.413 14.759l-0.132-0.202c10.882 15.552 28.711 25.596 48.885 25.596s38.003-10.044 48.758-25.405l0.127-0.191c2.9-4.19 5.363-9.004 7.153-14.135l0.128-0.423c0.354-1.015 0.656-2.048 0.958-3.089 1.651-4.925 2.604-10.597 2.604-16.491 0-5.882-0.949-11.543-2.702-16.838l0.108 0.378zM895.996 226.138h-218.521c-15.19 54.523-64.407 93.862-122.813 93.862s-107.623-39.34-122.599-92.967l-0.213-0.895h-303.854c-0.036 0-0.078 0-0.121 0-18.847 0-34.125-15.278-34.125-34.125s15.278-34.125 34.125-34.125c0.042 0 0.085 0 0.127 0h303.847c15.178-54.535 64.4-93.887 122.813-93.887s107.634 39.353 122.599 92.992l0.213 0.895h218.521c18.795 0.069 34.005 15.321 34.005 34.125s-15.21 34.056-33.998 34.125h-0.007zM554.663 132.265c-20.181 0.026-38.009 10.073-48.779 25.431l-0.127 0.191c-2.888 4.184-5.344 8.991-7.132 14.112l-0.129 0.424c-0.354 1.021-0.666 2.060-0.958 3.104-1.651 4.923-2.604 10.591-2.604 16.482s0.953 11.559 2.713 16.859l-0.109-0.378c0.302 1.039 0.604 2.073 0.958 3.089 1.918 5.553 4.382 10.367 7.413 14.759l-0.132-0.202c10.882 15.552 28.711 25.596 48.885 25.596s38.003-10.044 48.758-25.405l0.127-0.191c2.9-4.19 5.363-9.004 7.153-14.135l0.128-0.423c0.354-1.015 0.656-2.048 0.958-3.089 1.651-4.925 2.604-10.597 2.604-16.491 0-5.882-0.949-11.543-2.702-16.838l0.108 0.378c-0.302-1.052-0.614-2.101-0.969-3.13-1.916-5.54-4.372-10.343-7.393-14.727l0.132 0.203c-10.898-15.549-28.726-25.595-48.902-25.621h-0.004z" />
<glyph unicode="&#xe943;" glyph-name="google-circle" d="M512 917.333c-259.206 0-469.333-210.128-469.333-469.333s210.128-469.333 469.333-469.333c259.206 0 469.333 210.128 469.333 469.333v0c0 259.206-210.128 469.333-469.333 469.333v0zM399.448 233.68c-106.899 0-193.557 86.659-193.557 193.557s86.659 193.557 193.557 193.557v0c0.69 0.009 1.505 0.015 2.321 0.015 49.279 0 94.065-19.238 127.257-50.614l-0.088 0.082-54.969-53.422c-18.963 17.757-44.531 28.662-72.646 28.662-0.659 0-1.317-0.006-1.973-0.018l0.098 0.001c-64.499-1.211-116.32-53.782-116.32-118.457s51.822-117.246 116.207-118.455l0.113-0.002c2.351-0.196 5.088-0.308 7.851-0.308 48.918 0 89.656 35.022 98.508 81.36l0.1 0.627h-106.646v72.197h181.167c3.042-11.904 4.806-25.577 4.844-39.656v-0.024c0.204-3.195 0.32-6.927 0.32-10.687 0-98.626-79.952-178.578-178.578-178.578-2.661 0-5.308 0.058-7.94 0.173l0.375-0.013zM815.052 399.469h-55.625v-55.628h-55.063v55.628h-55.625v55.057h55.625v44.578l0.094 11.051h54.969v-55.628h55.625z" />
<glyph unicode="&#xe944;" glyph-name="google-plus" d="M356.207 497.347v-101.138h149.393c-12.54-65.792-69.608-114.852-138.134-114.852-3.871 0-7.705 0.157-11.497 0.464l0.499-0.033c-90.357 1.691-162.957 75.337-162.957 165.94s72.6 164.249 162.799 165.938l0.158 0.002c0.781 0.015 1.703 0.023 2.626 0.023 39.385 0 75.202-15.277 101.849-40.228l-0.083 0.077 77.003 74.837c-46.373 43.837-109.111 70.787-178.144 70.787-1.142 0-2.283-0.007-3.422-0.022l0.173 0.002c-149.749 0-271.144-121.395-271.144-271.144s121.395-271.144 271.144-271.144v0c3.162-0.143 6.871-0.225 10.598-0.225 138.159 0 250.16 112 250.16 250.16 0 5.267-0.163 10.495-0.483 15.681l0.035-0.711c-0.053 19.756-2.524 38.91-7.131 57.215l0.347-1.629zM860.745 486.229v77.924h-77.001l-0.131-15.479v-62.445h-77.924v-77.126h77.922v-77.926h77.134v77.924h77.922v77.128z" />
<glyph unicode="&#xe945;" glyph-name="info-circle" d="M978.901 496c-16.685 158.017-109.593 291.193-240.775 363.447l-2.425 1.225c-10.754 6.064-24.228 12.68-38.057 18.628l-2.945 1.127c-53.927 23.348-116.727 36.929-182.699 36.929s-128.771-13.581-185.755-38.099l3.057 1.17c-16.775-7.075-30.248-13.691-43.326-20.935l2.323 1.181c-147.395-81.093-245.612-235.367-245.612-412.581 0-259.206 210.128-469.333 469.333-469.333s469.333 210.128 469.333 469.333c0 16.874-0.89 33.54-2.627 49.954l0.175-2.045zM554.667 221.867c0-16.495-13.372-29.867-29.867-29.867v0h-25.6c-16.495 0-29.867 13.372-29.867 29.867v0 281.6c0 16.495 13.372 29.867 29.867 29.867v0h25.6c16.495 0 29.867-13.372 29.867-29.867v0zM558.933 652.8c0-23.564-19.103-42.667-42.667-42.667v0h-8.533c-23.564 0-42.667 19.103-42.667 42.667v0 8.533c0 23.564 19.103 42.667 42.667 42.667v0h8.533c23.564 0 42.667-19.103 42.667-42.667v0z" />
<glyph unicode="&#xe946;" glyph-name="info-circle-o" d="M512 917.333c-259.206 0-469.333-210.128-469.333-469.333s210.128-469.333 469.333-469.333c259.206 0 469.333 210.128 469.333 469.333v0c0 259.206-210.128 469.333-469.333 469.333v0zM512 46.933c-221.503 0-401.067 179.564-401.067 401.067s179.564 401.067 401.067 401.067c221.503 0 401.067-179.564 401.067-401.067v0c-0.267-221.395-179.671-400.799-401.041-401.067h-0.026zM499.2 533.333h25.6c16.495 0 29.867-13.372 29.867-29.867v-281.6c0-16.495-13.372-29.867-29.867-29.867h-25.6c-16.495 0-29.867 13.372-29.867 29.867v281.6c0 16.495 13.372 29.867 29.867 29.867zM507.733 704h8.533c23.564 0 42.667-19.103 42.667-42.667v-8.533c0-23.564-19.103-42.667-42.667-42.667h-8.533c-23.564 0-42.667 19.103-42.667 42.667v8.533c0 23.564 19.103 42.667 42.667 42.667z" />
<glyph unicode="&#xe947;" glyph-name="in-progress" d="M213.333 448c0-164.949 133.718-298.667 298.667-298.667s298.667 133.718 298.667 298.667v0zM512 917.333c-259.206 0-469.333-210.128-469.333-469.333s210.128-469.333 469.333-469.333c259.206 0 469.333 210.128 469.333 469.333v0c-0.003 259.204-210.128 469.33-469.332 469.333h-0.001zM512 64c-212.077 0-384 171.923-384 384s171.923 384 384 384c212.077 0 384-171.923 384-384v0c-0.246-211.978-172.022-383.754-383.976-384h-0.024z" />
<glyph unicode="&#xe948;" glyph-name="instagram" d="M893.687 606.323c-0.695 33.658-7.18 65.597-18.494 95.146l0.65-1.932c-20.391 51.733-60.578 91.917-110.983 111.841l-1.33 0.463c-27.615 10.668-59.552 17.154-92.913 17.844l-0.295 0.005c-40.958 1.87-54.031 2.31-158.323 2.31s-117.364-0.44-158.323-2.31c-33.656-0.694-65.593-7.181-95.139-18.499l1.931 0.65c-51.735-20.388-91.921-60.571-111.849-110.975l-0.463-1.33c-10.664-27.617-17.149-59.555-17.839-92.918l-0.005-0.296c-1.875-40.958-2.313-54.034-2.313-158.323s0.437-117.364 2.313-158.323c0.694-33.657 7.179-65.595 18.494-95.143l-0.65 1.932c20.39-51.735 60.576-91.92 110.983-111.844l1.33-0.464c27.615-10.666 59.552-17.153 92.913-17.844l0.296-0.005c40.958-1.867 54.031-2.31 158.323-2.31s117.364 0.443 158.323 2.31c33.657 0.696 65.593 7.182 95.14 18.499l-1.931-0.65c51.736 20.388 91.923 60.573 111.849 110.978l0.464 1.33c10.664 27.616 17.149 59.553 17.839 92.915l0.005 0.295c1.877 40.96 2.313 54.036 2.313 158.323s-0.437 117.364-2.313 158.323zM824.573 292.831c-0.319-25.683-5.139-50.145-13.705-72.765l0.486 1.463c-13.207-33.588-39.296-59.674-72.023-72.578l-0.862-0.3c-21.157-8.088-45.619-12.91-71.168-13.223l-0.134-0.001c-40.479-1.846-52.625-2.237-155.167-2.237s-114.688 0.391-155.167 2.237c-25.682 0.314-50.145 5.136-72.762 13.71l1.46-0.486c-33.59 13.204-59.678 39.29-72.586 72.015l-0.3 0.862c-8.080 21.157-12.9 45.619-13.218 71.165l-0.001 0.136c-1.844 40.491-2.24 52.638-2.24 155.169s0.396 114.677 2.24 155.169c0.318 25.684 5.139 50.148 13.705 72.769l-0.486-1.463c13.21 33.585 39.297 59.669 72.023 72.575l0.862 0.3c21.157 8.085 45.62 12.907 71.167 13.22l0.135 0.001c40.49 1.848 52.635 2.242 155.167 2.242s114.677-0.393 155.167-2.24c25.682-0.315 50.145-5.136 72.763-13.708l-1.461 0.486c33.588-13.206 59.676-39.29 72.586-72.015l0.3-0.862c8.080-21.158 12.901-45.621 13.218-71.168l0.001-0.136c1.844-40.491 2.24-52.635 2.24-155.169s-0.396-114.678-2.24-155.17zM512 645.19c0 0-0.001 0-0.001 0-108.904 0-197.189-88.284-197.189-197.189s88.284-197.189 197.189-197.189c108.904 0 197.188 88.284 197.189 197.187v0c0 0.001 0 0.003 0 0.004 0 108.903-88.283 197.186-197.186 197.186 0 0-0.001 0-0.001 0v0zM512 320c-70.692 0-128 57.308-128 128s57.308 128 128 128c70.692 0 128-57.308 128-128v0c-0.002-70.692-57.308-127.998-128-128v0zM763.063 652.982c0-0.001 0-0.002 0-0.003 0-25.451-20.632-46.083-46.083-46.083s-46.083 20.632-46.083 46.083c0 25.451 20.632 46.083 46.083 46.083v0c25.45 0 46.081-20.63 46.083-46.080v0z" />
<glyph unicode="&#xe949;" glyph-name="instagram-circle" d="M597.333 448c0-47.128-38.205-85.333-85.333-85.333s-85.333 38.205-85.333 85.333c0 47.128 38.205 85.333 85.333 85.333s85.333-38.205 85.333-85.333zM711.563 598.982c-8.8 22.393-26.191 39.785-48.009 48.386l-0.575 0.2c-14.104 5.39-30.41 8.604-47.441 8.814l-0.090 0.001c-27 1.232-35.094 1.493-103.448 1.493s-76.448-0.261-103.448-1.493c-17.12-0.211-33.427-3.425-48.505-9.139l0.974 0.324c-22.393-8.801-39.784-26.192-48.385-48.011l-0.2-0.575c-5.393-14.105-8.61-30.413-8.82-47.446l-0.001-0.091c-1.229-26.992-1.49-35.089-1.49-103.445s0.261-76.451 1.49-103.445c0.212-17.123 3.43-33.432 9.147-48.511l-0.324 0.974c8.799-22.393 26.191-39.784 48.009-48.384l0.575-0.2c14.104-5.392 30.411-8.607 47.442-8.814l0.089-0.001c26.99-1.232 35.094-1.493 103.448-1.493s76.459 0.26 103.448 1.493c17.12 0.208 33.427 3.423 48.504 9.139l-0.973-0.324c22.393 8.799 39.784 26.19 48.384 48.009l0.2 0.575c5.392 14.105 8.609 30.413 8.82 47.446l0.001 0.091c1.229 26.995 1.49 35.091 1.49 103.445s-0.261 76.453-1.49 103.448c-0.212 17.122-3.429 33.43-9.145 48.508l0.324-0.974zM512 316.542c-0.001 0-0.001 0-0.002 0-72.603 0-131.46 58.857-131.46 131.46s58.857 131.46 131.46 131.46c72.603 0 131.46-58.857 131.46-131.46 0-0.001 0-0.001 0-0.002v0c0-0.001 0-0.001 0-0.002 0-72.601-58.855-131.456-131.456-131.456-0.001 0-0.002 0-0.002 0v0zM648.656 553.935c-16.966 0-30.72 13.754-30.72 30.72s13.754 30.72 30.72 30.72c16.966 0 30.72-13.754 30.72-30.72v0c0-0.001 0-0.002 0-0.003 0-16.964-13.752-30.717-30.717-30.717-0.001 0-0.002 0-0.004 0v0zM512 917.333c-259.206 0-469.333-210.128-469.333-469.333s210.128-469.333 469.333-469.333c259.206 0 469.333 210.128 469.333 469.333v0c0 259.206-210.128 469.333-469.333 469.333v0zM766.458 342.453c-0.463-22.439-4.786-43.732-12.329-63.432l0.433 1.288c-13.598-34.487-40.387-61.274-73.988-74.561l-0.887-0.309c-18.409-7.111-39.699-11.435-61.938-11.895l-0.197-0.003c-27.313-1.247-36.032-1.542-105.552-1.542s-78.24 0.294-105.552 1.542c-22.436 0.463-43.726 4.788-63.423 12.332l1.287-0.433c-34.488 13.596-61.277 40.383-74.566 73.983l-0.309 0.887c-7.109 18.412-11.433 39.704-11.893 61.947l-0.003 0.197c-1.25 27.305-1.542 36.020-1.542 105.547s0.292 78.245 1.542 105.55c0.463 22.438 4.787 43.73 12.329 63.429l-0.433-1.288c13.596 34.488 40.386 61.276 73.988 74.561l0.887 0.309c18.409 7.112 39.699 11.437 61.938 11.898l0.197 0.003c27.313 1.245 36.032 1.539 105.552 1.539s78.24-0.294 105.552-1.539c22.437-0.464 43.727-4.789 63.423-12.334l-1.287 0.433c34.489-13.593 61.279-40.382 74.566-73.983l0.309-0.887c7.109-18.41 11.432-39.702 11.893-61.944l0.003-0.197c1.25-27.307 1.542-36.023 1.542-105.55s-0.292-78.242-1.542-105.547z" />
<glyph unicode="&#xe94a;" glyph-name="launch" d="M884.821 802.382c-5.278 12.449-17.374 21.034-31.481 21.089h-256.007c-18.795-0.069-34.005-15.321-34.005-34.125s15.21-34.056 33.998-34.125h173.632l-368.417-368.417c-6.199-6.178-10.035-14.725-10.035-24.167 0-18.843 15.275-34.118 34.118-34.118 9.442 0 17.989 3.836 24.166 10.034l368.418 368.418v-173.625c0-18.847 15.278-34.125 34.125-34.125s34.125 15.278 34.125 34.125v0 256c-0.014 4.709-0.983 9.187-2.721 13.259l0.084-0.222zM853.333 354.138c-18.843-0.010-34.115-15.282-34.125-34.124v-179.209h-614.417v614.417h179.209c18.795 0.069 34.005 15.321 34.005 34.125s-15.21 34.056-33.998 34.125h-213.34c-18.843-0.010-34.115-15.282-34.125-34.124v-682.668c0.009-18.843 15.282-34.115 34.124-34.125h682.668c18.843 0.009 34.115 15.282 34.125 34.124v213.334c-0.009 18.843-15.282 34.115-34.124 34.125h-0.001z" />
<glyph unicode="&#xe94b;" glyph-name="linkedin" d="M839.125 831.99h-654.5c-0.182 0.002-0.397 0.003-0.612 0.003-30.698 0-55.629-24.693-56.013-55.301v-657.305c0.349-30.66 25.286-55.381 55.996-55.381 0.221 0 0.442 0.001 0.663 0.004h654.466c0.205-0.003 0.446-0.004 0.689-0.004 30.749 0 55.729 24.698 56.186 55.338l0.001 0.043v657.269c-0.49 30.666-25.464 55.338-56.201 55.338-0.237 0-0.473-0.001-0.71-0.004h0.036zM355.833 177.551h-114.041v366.502h114.041zM298.833 594.176c-36.474 0-66.042 29.568-66.042 66.042s29.568 66.042 66.042 66.042c36.466 0 66.029-29.555 66.042-66.019v-0.001c0-0.012 0-0.027 0-0.042 0-36.463-29.559-66.022-66.022-66.022-0.007 0-0.014 0-0.021 0h0.001zM782.375 177.55h-113.792v178.21c0 42.543-0.832 97.187-59.209 97.187-59.29 0-68.332-46.271-68.332-94.064v-181.333h-113.792v366.502h109.208v-50.063h1.542c21.159 35.706 59.494 59.27 103.332 59.27 1.568 0 3.128-0.030 4.681-0.090l-0.224 0.007c115.294 0 136.585-75.895 136.585-174.624z" />
<glyph unicode="&#xe94c;" glyph-name="linkedin-circle" d="M512 917.333c-259.206 0-469.333-210.128-469.333-469.333s210.128-469.333 469.333-469.333c259.206 0 469.333 210.128 469.333 469.333v0c-0.782 258.891-210.443 468.552-469.259 469.333h-0.074zM413.708 281.208h-79.667v256.060h79.667zM373.896 572.288c-0.002 0-0.004 0-0.006 0-25.483 0-46.141 20.658-46.141 46.141s20.658 46.141 46.141 46.141c25.478 0 46.132-20.649 46.141-46.125v-0.001c0-0.007 0-0.016 0-0.025 0-25.478-20.654-46.131-46.131-46.131-0.002 0-0.003 0-0.005 0v0zM711.719 281.207h-79.5v124.51c0 29.724-0.583 67.901-41.365 67.901-41.427 0-47.739-32.328-47.739-65.719v-126.69h-79.511v256.058h76.302v-34.976h1.083c14.783 24.946 41.566 41.409 72.193 41.409 1.093 0 2.182-0.021 3.265-0.063l-0.156 0.005c80.552 0 95.427-53.024 95.427-122.003z" />
<glyph unicode="&#xe94d;" glyph-name="list" d="M853.333 260.26h-469.333c-23.564 0-42.667-19.103-42.667-42.667s19.103-42.667 42.667-42.667v0h469.333c23.564 0 42.667 19.103 42.667 42.667s-19.103 42.667-42.667 42.667v0zM853.333 490.677h-469.333c-23.564 0-42.667-19.103-42.667-42.667s19.103-42.667 42.667-42.667v0h469.333c23.564 0 42.667 19.103 42.667 42.667s-19.103 42.667-42.667 42.667v0zM384 636.052h469.333c23.564 0 42.667 19.103 42.667 42.667s-19.103 42.667-42.667 42.667v0h-469.333c-23.564 0-42.667-19.103-42.667-42.667s19.103-42.667 42.667-42.667v0zM170.667 725.667c-25.919-0.002-46.929-21.014-46.929-46.933 0-25.921 21.013-46.933 46.933-46.933s46.933 21.013 46.933 46.933c0 0.003 0 0.006 0 0.009v0c-0.007 25.918-21.018 46.925-46.937 46.925 0 0-0.001 0-0.001 0v0zM170.667 494.938c-25.919-0.002-46.929-21.014-46.929-46.933 0-25.921 21.013-46.933 46.933-46.933s46.931 21.010 46.933 46.929v0c-0.003 25.922-21.016 46.935-46.937 46.938v0zM217.602 217.599c0-25.922-21.014-46.935-46.935-46.935s-46.935 21.014-46.935 46.935c0 25.922 21.014 46.935 46.935 46.935s46.935-21.014 46.935-46.935z" />
<glyph unicode="&#xe94e;" glyph-name="location" d="M810.667 576c0 163.84-134.827 298.667-298.667 298.667s-298.667-134.827-298.667-298.667v-3.285c0-2.261 0.469-4.651 0.512-6.955 0.299-8.917 0.896-17.749 1.963-26.453 25.173-231.552 296.192-517.973 296.192-517.973s271.019 286.421 296.192 517.973c1.067 8.533 1.664 17.536 1.963 26.453 0 2.304 0.512 4.693 0.512 6.955v0.811c0 0.811 0 1.621 0 2.475zM512 469.333c-58.496 0-106.667 48.171-106.667 106.667s48.171 106.667 106.667 106.667c58.496 0 106.667-48.171 106.667-106.667s-48.171-106.667-106.667-106.667z" />
<glyph unicode="&#xe94f;" glyph-name="location-o" d="M810.667 576c0 164.949-133.718 298.667-298.667 298.667s-298.667-133.718-298.667-298.667v0c0-0.841 0.115-1.651 0.125-2.492l-0.125-0.789c0-2.276 0.458-4.664 0.521-6.955 0.291-8.927 0.896-17.766 1.958-26.479 25.158-231.514 296.187-517.952 296.187-517.952s271.031 286.438 296.187 517.953c1.063 8.713 1.667 17.552 1.958 26.479 0.064 2.289 0.521 4.677 0.521 6.953l-0.125 0.789c0.012 0.841 0.125 1.651 0.125 2.492zM742.272 573.727c-0.177-2.021-0.312-3.985-0.354-5.734-0.229-6.891-0.677-13.713-1.594-21.331-15.125-139.172-143.104-319.419-228.352-422.016-85.24 102.482-213.146 282.669-228.395 422.906-0.811 6.727-1.26 13.55-1.479 20.084-0.052 1.94-0.177 3.909-0.364 6.059l-0.011 0.646c-0.010 1.123-0.052 2.234-0.114 3.362 0.834 126.612 103.666 228.929 230.395 228.929 126.779 0 229.642-102.397 230.396-228.998v-0.072c-0.065-1.324-0.117-2.777-0.128-3.834zM512 704c-70.692 0-128-57.308-128-128s57.308-128 128-128c70.692 0 128 57.308 128 128v0c0 0.001 0 0.002 0 0.003 0 70.691-57.306 127.997-127.997 127.997-0.001 0-0.003 0-0.004 0v0zM512 516.267c-0.001 0-0.002 0-0.003 0-32.99 0-59.733 26.744-59.733 59.733s26.744 59.733 59.733 59.733c32.99 0 59.733-26.744 59.733-59.733v0c-0.037-32.974-26.757-59.695-59.727-59.733h-0.004z" />
<glyph unicode="&#xe950;" glyph-name="lock" d="M725.333 533.333h-8.533v85.333c0 113.108-91.692 204.8-204.8 204.8s-204.8-91.692-204.8-204.8v0-85.333h-8.533c-47.070-0.145-85.188-38.264-85.333-85.319v-341.347c0.145-47.070 38.264-85.188 85.319-85.333h426.681c47.070 0.145 85.188 38.264 85.333 85.319v341.347c-0.145 47.070-38.264 85.188-85.319 85.333h-0.014zM375.467 618.667c0 75.405 61.128 136.533 136.533 136.533s136.533-61.128 136.533-136.533v0-85.333h-273.067zM576 256c0-23.564-19.103-42.667-42.667-42.667v0h-42.667c-23.564 0-42.667 19.103-42.667 42.667v0 42.667c0 23.564 19.103 42.667 42.667 42.667v0h42.667c23.564 0 42.667-19.103 42.667-42.667v0z" />
<glyph unicode="&#xe951;" glyph-name="lock-o" d="M725.333 533.333h-8.533v85.333c0 113.108-91.692 204.8-204.8 204.8s-204.8-91.692-204.8-204.8v0-85.333h-8.533c-47.070-0.145-85.188-38.264-85.333-85.319v-341.347c0.145-47.070 38.264-85.188 85.319-85.333h426.681c47.070 0.145 85.188 38.264 85.333 85.319v341.347c-0.145 47.070-38.264 85.188-85.319 85.333h-0.014zM375.467 618.667c0 75.405 61.128 136.533 136.533 136.533s136.533-61.128 136.533-136.533v0-85.333h-273.067zM742.4 106.667c-0.119-9.378-7.689-16.948-17.055-17.067h-426.678c-9.378 0.119-16.948 7.689-17.067 17.055v341.344c0.119 9.378 7.689 16.948 17.055 17.067h426.678c9.378-0.119 16.948-7.689 17.067-17.055v-0.011zM490.667 341.333h42.667c23.564 0 42.667-19.103 42.667-42.667v-42.667c0-23.564-19.103-42.667-42.667-42.667h-42.667c-23.564 0-42.667 19.103-42.667 42.667v42.667c0 23.564 19.103 42.667 42.667 42.667z" />
<glyph unicode="&#xe952;" glyph-name="lock-unlock" d="M725.333 533.333h-8.542v85.333c-0.111 84.615-51.46 157.209-124.681 188.43l-1.339 0.508-0.396 0.271c-5.043 1.923-11.658 3.986-18.406 5.713l-1.417 0.308c-6 1.807-11.739 4.198-17.958 5.458-12.232 2.598-26.286 4.085-40.687 4.085-84.808 0-157.567-51.586-188.611-125.093l-0.504-1.344c-1.604-3.818-2.536-8.255-2.536-12.91 0-18.851 15.282-34.133 34.133-34.133 14.095 0 26.195 8.544 31.403 20.735l0.085 0.223c21.129 49.858 69.594 84.227 126.104 84.375h0.019v-0.085c9.581-0.011 18.923-1.006 27.939-2.889l-0.888 0.155c6.355-1.539 11.633-3.194 16.764-5.146l-0.952 0.318c54.715-18.402 93.465-69.137 93.678-128.952v-85.358h-349.875c-47.071-0.141-85.192-38.262-85.333-85.32v-341.347c0.141-47.071 38.262-85.192 85.32-85.333h426.681c47.071 0.141 85.192 38.262 85.333 85.32v341.347c-0.141 47.071-38.262 85.192-85.32 85.333h-0.014zM576 256c-0.070-23.536-19.131-42.597-42.66-42.667h-42.674c-23.536 0.070-42.597 19.131-42.667 42.66v42.674c0.070 23.536 19.131 42.597 42.66 42.667h42.674c23.536-0.070 42.597-19.131 42.667-42.66v-0.007z" />
<glyph unicode="&#xe953;" glyph-name="lock-unlock-o" d="M725.333 533.333h-8.542v85.333c-0.111 84.615-51.46 157.209-124.681 188.43l-1.339 0.508-0.396 0.271c-5.043 1.923-11.658 3.986-18.406 5.713l-1.417 0.308c-6 1.807-11.739 4.198-17.958 5.458-12.232 2.598-26.286 4.085-40.687 4.085-84.808 0-157.567-51.586-188.611-125.093l-0.504-1.344c-1.604-3.818-2.536-8.255-2.536-12.91 0-18.851 15.282-34.133 34.133-34.133 14.095 0 26.195 8.544 31.403 20.735l0.085 0.223c21.129 49.858 69.594 84.227 126.104 84.375h0.019v-0.085c9.581-0.011 18.923-1.006 27.939-2.889l-0.888 0.155c6.355-1.539 11.633-3.194 16.764-5.146l-0.952 0.318c54.715-18.402 93.465-69.137 93.678-128.952v-85.358h-349.875c-47.071-0.141-85.192-38.262-85.333-85.32v-341.347c0.141-47.071 38.262-85.192 85.32-85.333h426.681c47.071 0.141 85.192 38.262 85.333 85.32v341.347c-0.141 47.071-38.262 85.192-85.32 85.333h-0.014zM742.396 106.667c-0.126-9.373-7.69-16.938-17.050-17.067h-426.679c-9.373 0.129-16.936 7.694-17.062 17.055v341.345c0.126 9.373 7.69 16.938 17.050 17.067h426.679c9.373-0.129 16.936-7.694 17.062-17.055v-0.012zM490.667 341.334h42.667c23.564 0 42.667-19.103 42.667-42.667v-42.667c0-23.564-19.103-42.667-42.667-42.667h-42.667c-23.564 0-42.667 19.103-42.667 42.667v42.667c0 23.564 19.103 42.667 42.667 42.667z" />
<glyph unicode="&#xe954;" glyph-name="mail" d="M512 529.067l426.667 213.333v4.267c0 25.6-17.067 42.667-42.667 42.667h-768c-25.6 0-42.667-17.067-42.667-42.667v-4.267l426.667-213.333zM529.067 460.8c-8.533-4.267-21.333-4.267-29.867 0l-413.867 204.8v-516.267c0-25.6 17.067-42.667 42.667-42.667h768c25.6 0 42.667 17.067 42.667 42.667v516.267l-409.6-204.8z" />
<glyph unicode="&#xe955;" glyph-name="mail-circle" d="M311.467 594.645c0.299 0 0.683 0 0.981-0.341l199.552-114.347 199.509 114.347c0.341 0 0.683 0 1.024 0.341v11.221h-401.067v-11.221zM512 420.224c-4.864 0-9.643 1.28-13.824 3.712l-186.709 107.051v-240.853h401.067v240.853l-186.752-107.051c-4.181-2.432-8.96-3.712-13.781-3.712zM512 917.333c-257.451 0-469.333-211.883-469.333-469.333s211.883-469.333 469.333-469.333c257.451 0 469.333 211.883 469.333 469.333s-211.883 469.333-469.333 469.333zM768 277.333c0-23.424-19.243-42.667-42.667-42.667h-426.667c-23.424 0-42.667 19.243-42.667 42.667v341.333c0 23.424 19.243 42.667 42.667 42.667h426.667c23.424 0 42.667-19.243 42.667-42.667v-341.333z" />
<glyph unicode="&#xe956;" glyph-name="mail-o" d="M896 789.333h-768c-23.424 0-42.667-19.243-42.667-42.667v-597.333c0-23.424 19.243-42.667 42.667-42.667h768c23.424 0 42.667 19.243 42.667 42.667v597.333c0 23.424-19.243 42.667-42.667 42.667zM870.4 721.067v-33.707l-358.4-159.36-358.4 159.36v33.707h716.8zM153.6 174.933v437.675l344.533-153.131c8.832-3.883 18.901-3.883 27.733 0l344.533 153.131v-437.675h-716.8z" />
<glyph unicode="&#xe957;" d="M512 853.333c-4.222 0.163-9.18 0.256-14.159 0.256-216.046 0-391.185-175.14-391.185-391.185 0-0.794 0.002-1.587 0.007-2.38l-0.001 0.122c-0.020-1.461-0.031-3.185-0.031-4.913 0-113.335 49.015-215.221 127.003-285.619l0.339-0.301c6.413-5.722 10.544-13.884 10.926-23.015l0.002-0.066 2.202-72.096c0.578-17.486 14.892-31.442 32.465-31.442 4.719 0 9.203 1.006 13.249 2.816l-0.206-0.082 80.416 35.477c3.854 1.751 8.358 2.772 13.1 2.772 3.029 0 5.96-0.416 8.74-1.195l-0.228 0.054c34.831-9.892 74.833-15.579 116.163-15.579 0.421 0 0.842 0.001 1.263 0.002h-0.066c3.567-0.116 7.761-0.182 11.971-0.182 217.252 0 393.369 176.117 393.369 393.369s-176.117 393.369-393.369 393.369c-4.209 0-8.403-0.066-12.581-0.197l0.61 0.015z" />
<glyph unicode="&#xe958;" d="M268.634 345.152l119.073 188.885c10.957 17.153 29.897 28.362 51.456 28.362 13.746 0 26.428-4.558 36.617-12.244l-0.154 0.111 94.688-71.034c4.014-3.030 9.087-4.853 14.585-4.853 5.546 0 10.659 1.855 14.753 4.978l-0.059-0.043 127.881 97.053c3.193 2.445 7.242 3.917 11.636 3.917 10.625 0 19.239-8.614 19.239-19.239 0-3.816-1.111-7.373-3.028-10.365l0.046 0.077-119.073-188.885c-10.957-17.153-29.897-28.363-51.456-28.363-13.747 0-26.429 4.558-36.617 12.245l0.154-0.112-94.688 71.036c-4.014 3.030-9.087 4.853-14.585 4.853-5.546 0-10.659-1.855-14.753-4.977l0.059 0.043-127.881-97.055c-3.193-2.445-7.243-3.918-11.636-3.918-10.625 0-19.238 8.613-19.238 19.238 0 3.817 1.112 7.374 3.029 10.366l-0.046-0.077z" />
<glyph unicode="&#xe959;" glyph-name="messenger-circle" d="M512 917.333c-259.206 0-469.333-210.128-469.333-469.333s210.128-469.333 469.333-469.333c259.206 0 469.333 210.128 469.333 469.333v0c-0.782 258.891-210.443 468.552-469.259 469.333h-0.074zM512 187.292c-0.239-0.001-0.521-0.001-0.804-0.001-28.285 0-55.661 3.891-81.622 11.168l2.124-0.508c-1.746 0.495-3.751 0.78-5.823 0.78-3.243 0-6.323-0.697-9.098-1.951l0.139 0.056-55.021-24.277c-2.627-1.182-5.695-1.87-8.924-1.87-12.024 0-21.818 9.549-22.211 21.478l-0.001 0.036-1.51 49.328c-0.266 6.292-3.092 11.876-7.458 15.772l-0.022 0.019c-53.59 48.373-87.125 118.084-87.125 195.629 0 1.182 0.008 2.363 0.023 3.541l-0.002-0.179c-0.003 0.459-0.004 1.002-0.004 1.546 0 147.818 119.83 267.648 267.648 267.648 3.408 0 6.801-0.064 10.177-0.19l-0.488 0.014c2.442 0.080 5.313 0.125 8.195 0.125 148.644 0 269.144-120.5 269.144-269.144s-120.5-269.144-269.144-269.144c-2.882 0-5.753 0.045-8.613 0.135l0.418-0.010zM659.427 535.828l-87.5-66.404c-2.76-2.106-6.258-3.375-10.052-3.375-3.762 0-7.233 1.247-10.022 3.351l0.042-0.031-64.781 48.602c-6.866 5.184-15.544 8.303-24.95 8.303-14.751 0-27.71-7.67-35.106-19.24l-0.1-0.167-81.469-129.237c-1.28-1.994-2.040-4.428-2.040-7.039 0-7.27 5.893-13.163 13.163-13.163 3.006 0 5.777 1.008 7.993 2.704l-0.032-0.023 87.5 66.404c2.76 2.107 6.259 3.376 10.054 3.376 3.761 0 7.232-1.247 10.020-3.35l-0.042 0.031 64.781-48.604c6.866-5.183 15.543-8.302 24.949-8.302 14.751 0 27.71 7.67 35.107 19.239l0.1 0.167 81.469 129.237c1.281 1.994 2.041 4.429 2.041 7.040 0 7.269-5.893 13.162-13.162 13.162-3.007 0-5.778-1.008-7.994-2.705l0.032 0.023z" />
<glyph unicode="&#xe95a;" glyph-name="microphone" d="M768 482.133c-18.851 0-34.133-15.282-34.133-34.133v0c0-122.534-99.333-221.867-221.867-221.867s-221.867 99.333-221.867 221.867v0c0 18.851-15.282 34.133-34.133 34.133s-34.133-15.282-34.133-34.133v0c0-0.041 0-0.089 0-0.138 0-148.131 111.159-270.299 254.613-287.64l1.387-0.137v-104.619h-93.867c-18.851 0-34.133-15.282-34.133-34.133s15.282-34.133 34.133-34.133h256c18.851 0 34.133 15.282 34.133 34.133s-15.282 34.133-34.133 34.133h-93.867v104.491c144.848 17.656 255.96 139.867 256 288.038v0.004c0 18.851-15.282 34.133-34.133 34.133v0zM512 277.333c94.14 0.29 170.377 76.527 170.667 170.639v298.695c0 94.257-76.41 170.667-170.667 170.667s-170.667-76.41-170.667-170.667v0-298.667c0.29-94.14 76.527-170.377 170.639-170.667h0.028zM409.6 746.667c0 56.554 45.846 102.4 102.4 102.4s102.4-45.846 102.4-102.4v0-298.667c0-56.554-45.846-102.4-102.4-102.4s-102.4 45.846-102.4 102.4v0z" />
<glyph unicode="&#xe95b;" glyph-name="microphone-default" d="M768 482.125c-18.843-0.009-34.115-15.282-34.125-34.124v-0.001c0-122.538-99.337-221.875-221.875-221.875s-221.875 99.337-221.875 221.875v0c0 18.847-15.278 34.125-34.125 34.125s-34.125-15.278-34.125-34.125v0c0-0.057 0-0.124 0-0.191 0-148.122 111.163-270.28 254.614-287.6l1.386-0.136v-104.615h-93.875c-18.847 0-34.125-15.278-34.125-34.125s15.278-34.125 34.125-34.125h256c18.847 0 34.125 15.278 34.125 34.125s-15.278 34.125-34.125 34.125h-93.875v104.506c144.859 17.58 256 139.796 256 287.971 0 0.023 0 0.046 0 0.069v-0.004c-0.009 18.843-15.282 34.115-34.124 34.125h-0.001zM512 277.333c94.142 0.286 170.381 76.525 170.667 170.639v298.694c0 94.257-76.41 170.667-170.667 170.667s-170.667-76.41-170.667-170.667v0-298.667c0.286-94.142 76.525-170.381 170.639-170.667h0.027z" />
<glyph unicode="&#xe95c;" glyph-name="microphone-mute" d="M802.125 448c0 18.847-15.278 34.125-34.125 34.125s-34.125-15.278-34.125-34.125v0c-0.236-36.782-9.394-71.372-25.414-101.785l0.582 1.212 50.125-50.115c26.748 42.879 42.703 94.894 42.957 150.618v0.070zM880.281 79.744l-736.531 736.537c-6.178 6.199-14.725 10.035-24.167 10.035-18.843 0-34.118-15.275-34.118-34.118 0-9.442 3.836-17.989 10.034-24.166l245.834-245.84v-74.193c0.286-94.142 76.525-170.381 170.639-170.667h0.027c22.378 0.108 43.686 4.561 63.164 12.559l-1.122-0.408 38.219-38.224c-29.073-15.566-63.551-24.831-100.165-25.135l-0.095-0.001c-122.532 0.015-221.86 99.343-221.875 221.873v0.002c0 18.847-15.278 34.125-34.125 34.125s-34.125-15.278-34.125-34.125v0c0-0.057 0-0.124 0-0.191 0-148.122 111.163-270.28 254.614-287.6l1.386-0.136v-104.615h-93.875c-18.847 0-34.125-15.278-34.125-34.125s15.278-34.125 34.125-34.125h256c18.847 0 34.125 15.278 34.125 34.125s-15.278 34.125-34.125 34.125h-93.875v104.636c43.779 5.326 83.321 19.73 117.949 41.286l-1.22-0.708 169.177-169.177c6.163-6.109 14.648-9.883 24.015-9.883 18.843 0 34.118 15.275 34.118 34.118 0 9.367-3.775 17.852-9.886 24.017l0.002-0.002zM682.667 448v298.667c0 94.257-76.41 170.667-170.667 170.667s-170.667-76.41-170.667-170.667v0-31.526l329.187-329.182c7.588 18.356 12.040 39.664 12.146 61.999v0.042z" />
<glyph unicode="&#xe95d;" glyph-name="microphone-mute-o" d="M880.281 79.744l-736.531 736.537c-6.178 6.199-14.725 10.035-24.167 10.035-18.843 0-34.118-15.275-34.118-34.118 0-9.442 3.836-17.989 10.034-24.166l245.834-245.84v-74.193c0.286-94.142 76.525-170.381 170.639-170.667h0.027c22.378 0.108 43.686 4.561 63.164 12.559l-1.122-0.408 38.219-38.224c-29.073-15.566-63.551-24.831-100.165-25.135l-0.095-0.001c-122.532 0.015-221.86 99.343-221.875 221.873v0.002c0 18.847-15.278 34.125-34.125 34.125s-34.125-15.278-34.125-34.125v0c0-0.057 0-0.124 0-0.191 0-148.122 111.163-270.28 254.614-287.6l1.386-0.136v-104.615h-93.875c-18.847 0-34.125-15.278-34.125-34.125s15.278-34.125 34.125-34.125h256c18.847 0 34.125 15.278 34.125 34.125s-15.278 34.125-34.125 34.125h-93.875v104.506c43.683 5.566 83.069 20.13 117.543 41.791l-1.199-0.703 169.562-169.557c6.166-6.125 14.662-9.91 24.042-9.91 18.843 0 34.118 15.275 34.118 34.118 0 9.38-3.785 17.876-9.912 24.043l0.002-0.002zM512 345.6c-56.525 0.069-102.329 45.874-102.396 102.394v5.928l107.781-107.776c-1.823-0.099-3.542-0.546-5.385-0.546zM802.125 448c0 18.847-15.278 34.125-34.125 34.125s-34.125-15.278-34.125-34.125v0c-0.236-36.782-9.394-71.372-25.414-101.785l0.582 1.212 50.125-50.115c26.748 42.879 42.703 94.894 42.957 150.618v0.070zM409.604 746.667c0 56.552 45.844 102.396 102.396 102.396s102.396-45.844 102.396-102.396v0-298.667c0-1.844-0.448-3.563-0.541-5.376l56.666-56.666c7.588 18.357 12.040 39.665 12.146 62v298.709c0 94.257-76.41 170.667-170.667 170.667s-170.667-76.41-170.667-170.667v0-31.526l68.271-68.271z" />
<glyph unicode="&#xe95e;" glyph-name="minus" d="M768 405.333h-512c-23.424 0-42.667 19.243-42.667 42.667s19.243 42.667 42.667 42.667h512c23.424 0 42.667-19.243 42.667-42.667s-19.243-42.667-42.667-42.667z" />
<glyph unicode="&#xe95f;" glyph-name="minus-circle" d="M512 917.333c-259.206 0-469.333-210.128-469.333-469.333s210.128-469.333 469.333-469.333c259.206 0 469.333 210.128 469.333 469.333v0c0 259.206-210.128 469.333-469.333 469.333v0zM682.667 413.875h-341.333c-18.795 0.069-34.005 15.321-34.005 34.125s15.21 34.056 33.998 34.125h341.34c18.795-0.069 34.005-15.321 34.005-34.125s-15.21-34.056-33.998-34.125h-0.007z" />
<glyph unicode="&#xe960;" glyph-name="minus-circle-o" d="M512 917.333c-259.206 0-469.333-210.128-469.333-469.333s210.128-469.333 469.333-469.333c259.206 0 469.333 210.128 469.333 469.333v0c0 259.206-210.128 469.333-469.333 469.333v0zM512 46.933c-0.001 0-0.003 0-0.004 0-221.503 0-401.067 179.564-401.067 401.067s179.564 401.067 401.067 401.067c221.503 0 401.067-179.564 401.067-401.067v0c-0.258-221.398-179.665-400.806-401.037-401.067h-0.025zM682.667 482.125h-341.333c-18.795-0.069-34.005-15.321-34.005-34.125s15.21-34.056 33.998-34.125h341.34c18.795 0.069 34.005 15.321 34.005 34.125s-15.21 34.056-33.998 34.125h-0.007z" />
<glyph unicode="&#xe961;" glyph-name="paperclip" d="M512-12.8c-124.841 0.121-226.012 101.292-226.133 226.122v533.345c0 89.544 72.59 162.133 162.133 162.133s162.133-72.59 162.133-162.133v0-448c0-54.198-43.936-98.133-98.133-98.133s-98.133 43.936-98.133 98.133v0 362.069c0 18.851 15.282 34.133 34.133 34.133s34.133-15.282 34.133-34.133v0-362.069c0-16.495 13.372-29.867 29.867-29.867s29.867 13.372 29.867 29.867v0 448c0 51.841-42.026 93.867-93.867 93.867s-93.867-42.026-93.867-93.867v0-533.333c0-87.187 70.679-157.867 157.867-157.867s157.867 70.679 157.867 157.867v0 447.403c0 18.851 15.282 34.133 34.133 34.133s34.133-15.282 34.133-34.133v0-447.403c-0.121-124.841-101.292-226.012-226.122-226.133h-0.012z" />
<glyph unicode="&#xe962;" glyph-name="password-hide" d="M976.381 468.992c-6.272 12.56-157.292 307.541-464.375 307.541-0.16 0-0.349 0-0.539 0-68.818 0-134.047-15.367-192.442-42.856l2.762 1.169 96.229-96.227c27.352 14.13 59.669 22.501 93.921 22.714h0.068c117.82-0.002 213.331-95.513 213.333-213.333v0c-0.211-34.321-8.584-66.638-23.272-95.173l0.554 1.184 117.823-117.823c62.763 52.935 114.863 116.161 154.212 187.412l1.726 3.408c3.123 6.116 4.954 13.34 4.954 20.992s-1.83 14.876-5.077 21.259l0.123-0.267zM640.006 448c0.001 0.226 0.002 0.492 0.002 0.759 0 70.274-56.969 127.243-127.243 127.243-10.222 0-20.163-1.205-29.688-3.482l0.866 0.175 152.761-152.76c2.037 8.409 3.237 18.081 3.302 28.022v0.044zM764.757 195.106l0.166 0.109-102.021 102.021-0.125-0.148-60.333 60.341 0.125 0.143-180.992 180.982-0.145-0.12-60.344 60.339 0.146 0.122-101.978 101.984-0.167-0.099-115.499 115.503c-6.174 6.174-14.704 9.993-24.126 9.993-18.843 0-34.118-15.275-34.118-34.118 0-9.421 3.819-17.951 9.993-24.125l108-108.008c-62.717-52.982-114.754-116.283-153.995-187.614l-1.724-3.419c-3.123-6.116-4.954-13.34-4.954-20.992s1.83-14.876 5.077-21.259l-0.123 0.267c6.281-12.56 157.302-307.541 464.384-307.541 0.067 0 0.146 0 0.225 0 68.931 0 134.277 15.349 192.806 42.815l-2.781-1.173 129.771-129.779c6.17-6.149 14.682-9.951 24.083-9.951 18.843 0 34.118 15.275 34.118 34.118 0 9.4-3.802 17.913-9.952 24.084l0.001-0.001zM512.006 234.667c-117.821 0-213.333 95.513-213.333 213.333v0c0.213 34.319 8.582 66.635 23.262 95.172l-0.554-1.185 65.927-65.93c-2.101-8.656-3.305-18.595-3.305-28.814 0-70.276 56.97-127.245 127.245-127.245 10.222 0 20.162 1.205 29.687 3.481l-0.866-0.175 65.917-65.93c-27.349-14.128-59.662-22.497-93.911-22.708h-0.068z" />
<glyph unicode="&#xe963;" glyph-name="password-hide-o" d="M764.754 195.109l0.156 0.11-49.375 49.375-0.157-0.107-58.719 58.716 0.125 0.146-48.23 48.232-0.125-0.143-192.999 192.998 0.146 0.12-48.239 48.236-0.146-0.122-58.781 58.787 0.177 0.091-49.344 49.341-0.167-0.102-115.499 115.499c-6.174 6.174-14.704 9.993-24.125 9.993-18.843 0-34.119-15.275-34.119-34.119 0-9.422 3.819-17.951 9.993-24.126l108.011-108.005c-62.721-52.98-114.758-116.282-153.996-187.618l-1.723-3.418c-3.123-6.116-4.953-13.34-4.953-20.992s1.83-14.876 5.076-21.259l-0.123 0.267c6.272-12.557 157.292-307.541 464.375-307.541 0.069 0 0.151 0 0.233 0 68.932 0 134.279 15.35 192.809 42.819l-2.781-1.173 129.781-129.779c6.17-6.149 14.682-9.951 24.083-9.951 18.843 0 34.118 15.275 34.118 34.118 0 9.4-3.802 17.913-9.952 24.084l0.001-0.001zM380.514 482.843l166.323-166.315c-10.401-3.054-22.372-4.893-34.746-5.067l-0.097-0.001c-75.374 0.086-136.454 61.165-136.542 136.531v0.008c0.175 12.471 2.012 24.442 5.299 35.797l-0.236-0.954zM511.994 187.733c-240.104 0-371.24 211.568-398.24 260.267 36.802 64.018 82.726 118.268 136.762 163.076l0.978 0.788 76.198-76.19c-12.772-25.596-20.319-55.733-20.491-87.616v-0.058c0.136-113.048 91.743-204.656 204.779-204.792h0.013c31.938 0.174 62.072 7.719 88.845 21.017l-1.178-0.529 50.469-50.464c-40.994-16.118-88.467-25.472-138.123-25.498h-0.011zM976.379 468.992c-6.281 12.557-157.302 307.541-464.384 307.541-0.16 0-0.349 0-0.539 0-68.817 0-134.046-15.364-192.443-42.849l2.763 1.169 52.523-52.523c40.823 16.288 88.129 25.796 137.638 25.936h0.057c239.906 0 371.208-211.57 398.24-260.267-37.050-63.806-83.108-117.889-137.205-162.59l-1.004-0.805 48.417-48.417c62.763 52.936 114.862 116.162 154.211 187.413l1.726 3.408c3.123 6.116 4.953 13.34 4.953 20.992s-1.83 14.876-5.076 21.259l0.123-0.267zM696.296 360.333c12.771 25.594 20.317 55.729 20.489 87.61v0.058c-0.136 113.049-91.743 204.655-204.779 204.791h-0.013c-31.938-0.175-62.073-7.72-88.845-21.019l1.178 0.529 52.833-52.828c10.399 3.056 22.367 4.895 34.738 5.066l0.096 0.001c75.374-0.087 136.454-61.167 136.54-136.533v-0.008c-0.175-12.469-2.012-24.439-5.299-35.793l0.237 0.954z" />
<glyph unicode="&#xe964;" glyph-name="password-show" d="M976.378 468.992c-6.272 12.56-157.292 307.541-464.375 307.541s-458.104-294.982-464.384-307.541c-3.123-6.116-4.954-13.34-4.954-20.992s1.83-14.876 5.077-21.259l-0.123 0.267c6.281-12.56 157.302-307.541 464.384-307.541s458.104 294.982 464.375 307.541c3.124 6.116 4.954 13.34 4.954 20.992s-1.83 14.876-5.077 21.259l0.123-0.267zM512.003 234.667c-117.821 0-213.333 95.513-213.333 213.333s95.513 213.333 213.333 213.333c117.821 0 213.333-95.513 213.333-213.333v0c0-117.821-95.513-213.333-213.333-213.333v0zM640.003 448c0-70.692-57.308-128-128-128s-128 57.308-128 128c0 70.692 57.308 128 128 128s128-57.308 128-128z" />
<glyph unicode="&#xe965;" glyph-name="password-show-o" d="M976.384 468.992c-6.28 12.557-157.3 307.541-464.384 307.541s-458.104-294.985-464.384-307.541c-3.118-6.117-4.945-13.341-4.945-20.992s1.827-14.875 5.068-21.26l-0.123 0.268c6.28-12.558 157.3-307.541 464.384-307.541s458.104 294.985 464.384 307.541c3.118 6.117 4.945 13.341 4.945 20.992s-1.827 14.875-5.068 21.26l0.123-0.268zM512 187.731c-239.938 0-371.25 211.635-398.24 260.267 27.031 48.692 158.333 260.269 398.24 260.269 239.938 0 371.25-211.635 398.24-260.267-27.031-48.691-158.333-260.269-398.24-260.269zM512 652.804c0 0 0 0 0 0-113.103 0-204.792-91.688-204.792-204.792s91.688-204.792 204.792-204.792c113.103 0 204.792 91.688 204.792 204.792v0c-0.136 113.048-91.743 204.655-204.778 204.792h-0.013zM512 311.471c-75.41 0-136.542 61.132-136.542 136.542s61.132 136.542 136.542 136.542c75.41 0 136.542-61.132 136.542-136.542 0 0 0 0 0-0.001v0c-0.086-75.375-61.167-136.455-136.533-136.541h-0.008z" />
<glyph unicode="&#xe966;" glyph-name="pause" d="M298.667 746.667h85.333c23.564 0 42.667-19.103 42.667-42.667v-512c0-23.564-19.103-42.667-42.667-42.667h-85.333c-23.564 0-42.667 19.103-42.667 42.667v512c0 23.564 19.103 42.667 42.667 42.667zM640 746.667h85.333c23.564 0 42.667-19.103 42.667-42.667v-512c0-23.564-19.103-42.667-42.667-42.667h-85.333c-23.564 0-42.667 19.103-42.667 42.667v512c0 23.564 19.103 42.667 42.667 42.667z" />
<glyph unicode="&#xe967;" glyph-name="pen" d="M226.688 313.557l-75.392-226.261 226.56 75.733 391.936 391.893-150.869 150.827-392.235-392.192zM860.281 705.766l-90.511 90.508c-7.735 7.692-18.398 12.446-30.172 12.446s-22.436-4.754-30.174-12.448l-60.332-60.337 150.844-150.849 60.342 60.339c7.691 7.735 12.445 18.398 12.445 30.171s-4.754 22.435-12.446 30.172l0.002-0.002z" />
<glyph unicode="&#xe968;" glyph-name="phone" d="M893.867 195.669c5.376 13.867 2.603 29.611-7.168 40.789-52.949 52.907-118.229 91.904-189.952 113.408-25.557 2.048-50.475-9.259-65.707-29.867-11.349-11.989-23.979-22.699-37.632-31.915-33.451-3.755-245.077 207.915-241.365 241.323 9.216 13.824 19.968 26.581 31.957 38.059 20.608 15.275 31.915 40.149 29.867 65.707-21.632 71.723-60.715 136.96-113.749 189.867-11.179 9.771-26.923 12.544-40.789 7.211-53.76-18.048-99.115-55.168-127.445-104.277-24.747-81.707 70.315-265.173 231.552-426.197 171.733-171.733 344.32-256.299 426.197-231.509 49.109 28.331 86.187 73.643 104.235 127.403z" />
<glyph unicode="&#xe969;" glyph-name="phone-chat" d="M611.396 264.481c-1.828 0.16-3.956 0.251-6.104 0.251-24.316 0-45.903-11.682-59.456-29.739l-0.138-0.192c-11.185-11.785-23.504-22.292-36.845-31.416l-0.78-0.504c-33.437-3.724-245.083 207.922-241.365 241.359 9.627 14.121 20.133 26.441 31.815 37.534l0.099 0.093c18.253 13.689 29.938 35.277 29.938 59.594 0 2.147-0.091 4.273-0.27 6.375l0.019-0.274c-22.859 74.591-62.023 138.447-113.529 189.964l0.001-0.001c-7.008 6.13-16.243 9.869-26.352 9.869-5.194 0-10.157-0.987-14.712-2.783l0.272 0.095c-54.619-18.707-98.949-55.53-126.822-103.156l-0.594-1.099c-24.781-81.878 70.291-264.943 231.532-426.181 171.75-171.747 344.302-256.307 426.177-231.534 48.724 28.472 85.548 72.801 103.772 125.784l0.489 1.635c1.699 4.281 2.684 9.241 2.684 14.431 0 10.113-3.74 19.353-9.911 26.412l0.040-0.047c-51.512 51.507-115.367 90.671-186.748 112.675l-3.211 0.852zM896 917.572l-384-0.239c-47.134-0.019-85.336-38.232-85.336-85.369 0-0.24 0.001-0.481 0.003-0.721v0.037-392.064c-0.001-0.098-0.002-0.214-0.002-0.33 0-18.664 15.131-33.795 33.795-33.795 9.383 0 17.873 3.824 23.996 9.998l94.295 94.295h317.248c47.159 0.134 85.336 38.395 85.336 85.572 0 0.253-0.001 0.505-0.003 0.758v-0.038 236.323c0.001 0.182 0.002 0.398 0.002 0.613 0 46.922-38.038 84.96-84.96 84.96-0.132 0-0.264 0-0.396-0.001h0.020zM588.135 679.27c-18.851 0-34.133 15.282-34.133 34.133s15.282 34.133 34.133 34.133c18.851 0 34.133-15.282 34.133-34.133v0c-0.004-18.85-15.284-34.129-34.133-34.133v0zM703.335 679.27c-18.851 0-34.133 15.282-34.133 34.133s15.282 34.133 34.133 34.133c18.851 0 34.133-15.282 34.133-34.133v0c0-18.851-15.282-34.133-34.133-34.133-0.001 0-0.001 0-0.002 0v0zM818.543 679.27c-0.002 0-0.005 0-0.008 0-18.851 0-34.133 15.282-34.133 34.133s15.282 34.133 34.133 34.133c18.851 0 34.133-15.282 34.133-34.133v0c0-18.849-15.278-34.13-34.127-34.133v0z" />
<glyph unicode="&#xe96a;" glyph-name="phone-chat-o" d="M597.458 308.887c-3.499 0.514-7.538 0.808-11.646 0.808-27.769 0-52.405-13.417-67.777-34.123l-0.161-0.226s-18.083-19.334-19.292-20.667c-67.16 53.806-126.236 112.882-178.314 177.813l-1.728 2.228c1.25 1.125 20.708 19.333 20.708 19.333 20.921 15.46 34.339 40.036 34.339 67.745 0 4.176-0.305 8.281-0.893 12.294l0.055-0.456c-21.711 73.218-59.845 135.934-110.29 186.33l-0.003 0.003c-12.3 11.635-28.945 18.788-47.26 18.788-7.653 0-15.014-1.249-21.89-3.554l0.486 0.141c-60.27-19.463-108.777-60.895-137.051-114.633l-0.616-1.284c-30.251-100.042 84.916-283.417 214.375-412.792 136.417-136.458 280.625-219.458 375.542-219.458 0.421-0.005 0.919-0.008 1.417-0.008 12.767 0 25.099 1.86 36.741 5.324l-0.91-0.232c54.98 28.905 96.396 77.367 115.449 135.92l0.468 1.663 0.043 0.085c2.176 6.401 3.432 13.775 3.432 21.442 0 18.307-7.162 34.942-18.836 47.255l0.029-0.031c-50.42 50.46-113.167 88.595-183.337 109.502l-3.079 0.787zM733 146.471c-13.864-36.869-37.966-67.231-68.833-88.468l-0.625-0.406c-47.25-14.125-185.125 37.625-344.792 197.291-151.083 151.040-211.666 297.292-197.291 344.792 21.663 31.506 52.057 55.61 87.685 69.037l1.275 0.421c1.888 0.23 3.605 0.684 5.219 1.34l-0.135-0.049c40.494-40.888 71.534-91.214 89.522-147.379l0.725-2.62c0.583-3.042-3.792-7.75-13.208-16.583-2.75-2.583-5.419-5.084-7.917-7.625-1.625-1.707-4.708-4.416-8.167-7.541-19.627-17.707-30.417-27.5-32.208-43.459-1.5-13.458-4.292-38.583 111-153.833 115.25-115.292 140.25-112.708 153.875-111 16 1.792 25.833 12.667 43.666 32.458 3.042 3.375 5.708 6.375 7.375 8 2.458 2.417 4.958 5.083 7.541 7.834 8.75 9.375 12.875 13.833 16.542 13.208 58.427-18.606 108.538-49.082 149.649-88.811l-0.107 0.103c0.028-0.38 0.045-0.824 0.045-1.271 0-1.942-0.305-3.812-0.871-5.565l0.036 0.128zM896 917.572l-384-0.239c-47.134-0.019-85.336-38.232-85.336-85.369 0-0.24 0.001-0.481 0.003-0.721v0.037-392.064c-0.001-0.098-0.002-0.214-0.002-0.33 0-18.664 15.131-33.795 33.795-33.795 9.383 0 17.873 3.824 23.996 9.998l94.295 94.295h317.248c47.159 0.134 85.336 38.395 85.336 85.572 0 0.253-0.001 0.505-0.003 0.758v-0.038 236.323c0.001 0.182 0.002 0.398 0.002 0.613 0 46.922-38.038 84.96-84.96 84.96-0.132 0-0.264 0-0.396-0.001h0.020zM913.083 595.677c-0.121-9.901-8.103-17.897-17.986-18.041h-330.472c-0.010 0-0.022 0-0.034 0-9.412 0-17.931-3.822-24.090-9.999l-46.043-46.001v309.646c0.121 9.901 8.103 17.897 17.986 18.041h382.639c9.897-0.144 17.879-8.141 18-18.030v-0.011zM819.427 746.795c-18.851 0-34.133-15.282-34.133-34.133s15.282-34.133 34.133-34.133c18.851 0 34.132 15.281 34.133 34.131v0c-0.004 18.85-15.283 34.131-34.133 34.135h-0.001zM704.229 746.795c-18.85-0.001-34.131-15.283-34.131-34.133s15.282-34.133 34.133-34.133c18.851 0 34.132 15.281 34.133 34.131v0c0 0.001 0 0.001 0 0.002 0 18.851-15.282 34.133-34.133 34.133-0.001 0-0.002 0-0.002 0v0zM589.031 746.795c-18.85-0.001-34.131-15.283-34.131-34.133s15.282-34.133 34.133-34.133c18.851 0 34.132 15.281 34.133 34.131v0c0 0.001 0 0.001 0 0.002 0 18.851-15.282 34.133-34.133 34.133-0.001 0-0.002 0-0.002 0v0z" />
<glyph unicode="&#xe96b;" glyph-name="phone-o" d="M758.485 29.867c-105.515 0-266.496 92.971-419.2 245.675-168.619 168.661-269.653 362.24-240.043 460.117 15.061 49.792 98.133 114.048 151.765 127.488 6.913 2.399 14.881 3.785 23.173 3.785 19.418 0 37.061-7.599 50.118-19.986l-0.032 0.030c56.173-56.112 98.641-125.932 121.958-204.015l0.879-3.43c0.543-3.727 0.853-8.030 0.853-12.405 0-29.958-14.543-56.519-36.955-73.009l-0.251-0.176-6.656-6.443c-2.517-2.517-7.083-6.741-12.331-11.435-2.261-2.048-4.693-4.267-6.997-6.315 61.935-78.322 130.508-146.908 206.22-206.873l2.591-1.98c2.219 2.389 4.267 4.907 6.485 7.253 4.651 5.12 8.789 9.6 11.307 12.075l6.357 6.613c16.808 22.709 43.504 37.271 73.6 37.271 4.227 0 8.388-0.287 12.463-0.843l-0.474 0.053c81.545-24.208 151.393-66.691 207.527-122.877l0.003-0.003c12.317-13.077 19.886-30.745 19.886-50.182 0-8.239-1.36-16.159-3.868-23.55l0.152 0.516c-21.425-66.365-66.96-119.81-126.037-151.085l-1.409-0.68c-11.899-3.552-25.572-5.596-39.723-5.596-0.48 0-0.959 0.002-1.438 0.007l0.073-0.001zM276.011 798.72c0.512-0.64-2.645-0.341-8.533-1.792-42.823-16.147-78.041-44.292-102.52-80.322l-0.477-0.744c-18.944-62.72 66.091-235.307 222.976-392.235 170.411-170.325 329.131-242.304 392.192-222.976 37.026 24.727 65.256 60.063 80.6 101.639l0.466 1.444c0.657 2.026 1.035 4.357 1.035 6.776 0 1.011-0.066 2.006-0.194 2.981l0.012-0.115c-46.792 46.166-104.352 81.538-168.566 102.002l-2.997 0.825c-4.821 1.237-9.429-2.048-22.528-16.128-2.859-3.029-5.632-5.931-8.533-8.533-1.92-1.877-4.949-5.333-8.533-9.173-20.011-22.144-29.867-33.28-46.293-35.2-13.653-1.365-41.813-4.267-170.453 124.288-127.232 127.744-124.117 155.648-122.624 169.003 1.749 16.299 12.8 26.325 34.944 46.293 3.925 3.499 7.424 6.613 9.301 8.533 2.773 2.773 5.717 5.547 8.747 8.533 13.952 13.056 17.067 17.493 16.128 22.485-21.501 67.64-57.339 125.512-104.156 172.423l0.007-0.007z" />
<glyph unicode="&#xe96c;" glyph-name="play" d="M260.267 448c0 85.333 0 170.667 0 256 0 21.333 12.8 38.4 29.867 42.667 8.533 4.267 21.333 0 29.867-4.267 51.2-29.867 102.4-55.467 153.6-81.067 55.467-29.867 115.2-59.733 170.667-85.333 59.733-29.867 119.467-59.733 179.2-89.6 17.067-8.533 25.6-21.333 25.6-38.4s-8.533-29.867-25.6-38.4c-38.4-17.067-72.533-38.4-110.933-55.467-59.733-29.867-119.467-59.733-179.2-89.6s-119.467-59.733-174.933-89.6c-12.8-8.533-25.6-12.8-42.667-21.333-25.6-12.8-55.467 0-59.733 29.867 0 4.267 0 8.533 0 12.8 4.267 81.067 4.267 166.4 4.267 251.733z" />
<glyph unicode="&#xe96d;" glyph-name="plus" d="M768 490.667h-213.333v213.333c0 23.424-19.243 42.667-42.667 42.667s-42.667-19.243-42.667-42.667v-213.333h-213.333c-23.424 0-42.667-19.243-42.667-42.667s19.243-42.667 42.667-42.667h213.333v-213.333c0-23.424 19.243-42.667 42.667-42.667s42.667 19.243 42.667 42.667v213.333h213.333c23.424 0 42.667 19.243 42.667 42.667s-19.243 42.667-42.667 42.667z" />
</font>
</defs>
</svg>
